<?xml version="1.0" encoding="utf-8"?>
<!-- Generator: Adobe Illustrator 24.0.2, SVG Export Plug-In . SVG Version: 6.00 Build 0)  -->
<svg version="1.1" xmlns="http://www.w3.org/2000/svg" xmlns:xlink="http://www.w3.org/1999/xlink" x="0px" y="0px"
	 viewBox="0 0 368.64 359.47" style="enable-background:new 0 0 368.64 359.47;" xml:space="preserve">
<style type="text/css">
	.st0{fill:#861316;}
	.st1{fill-rule:evenodd;clip-rule:evenodd;fill:#861316;}
</style>
<g id="Layer_1">
	<g>
		<path class="st0" d="M214.36,299.88c3.18,0,5.76,2.58,5.76,5.76c0,3.18-2.58,5.76-5.76,5.76h-176c-10.56,0-20.15-4.31-27.1-11.26
			C4.31,293.19,0,283.59,0,273.04V61.13c0-10.56,4.31-20.15,11.26-27.1c6.95-6.95,16.54-11.26,27.1-11.26h230.92
			c10.56,0,20.15,4.31,27.1,11.26c6.95,6.95,11.26,16.54,11.26,27.1v140.09c0,3.18-2.58,5.76-5.76,5.76c-3.18,0-5.76-2.58-5.76-5.76
			V61.13c0-7.37-3.02-14.08-7.89-18.95c-4.87-4.87-11.58-7.89-18.95-7.89H38.36c-7.38,0-14.08,3.02-18.95,7.89
			c-4.87,4.87-7.89,11.58-7.89,18.95v211.9c0,7.38,3.02,14.08,7.89,18.95c4.87,4.87,11.58,7.89,18.95,7.89H214.36z"/>
		<path class="st0" d="M285.79,359.47c-45.68,0-82.85-37.17-82.85-82.85c0-45.68,37.17-82.85,82.85-82.85s82.85,37.16,82.85,82.85
			C368.64,322.3,331.48,359.47,285.79,359.47z M285.79,205.29c-39.33,0-71.33,32-71.33,71.33c0,39.33,32,71.33,71.33,71.33
			s71.33-32,71.33-71.33C357.12,237.29,325.12,205.29,285.79,205.29z"/>
		<path class="st0" d="M5.76,112.75c-3.18,0-5.76-2.58-5.76-5.76c0-3.18,2.58-5.76,5.76-5.76h296.12c3.18,0,5.76,2.58,5.76,5.76
			c0,3.18-2.58,5.76-5.76,5.76H5.76z"/>
		<path class="st1" d="M285.79,265.66c6.05,0,10.96,4.91,10.96,10.96c0,6.05-4.91,10.96-10.96,10.96c-6.05,0-10.96-4.91-10.96-10.96
			C274.83,270.57,279.74,265.66,285.79,265.66z"/>
		<path class="st0" d="M291.55,276.62c0,3.18-2.58,5.76-5.76,5.76s-5.76-2.58-5.76-5.76v-57.23c0-3.18,2.58-5.76,5.76-5.76
			s5.76,2.58,5.76,5.76V276.62z"/>
		<path class="st0" d="M285.79,282.38c-3.18,0-5.76-2.58-5.76-5.76c0-3.18,2.58-5.76,5.76-5.76h39.22c3.18,0,5.76,2.58,5.76,5.76
			c0,3.18-2.58,5.76-5.76,5.76H285.79z"/>
		<path class="st0" d="M108.91,167.42c-3.18,0-5.76-2.58-5.76-5.76c0-3.18,2.58-5.76,5.76-5.76h29.89c3.18,0,5.76,2.58,5.76,5.76
			c0,3.18-2.58,5.76-5.76,5.76H108.91z"/>
		<path class="st0" d="M168.85,167.42c-3.18,0-5.76-2.58-5.76-5.76c0-3.18,2.58-5.76,5.76-5.76h29.88c3.18,0,5.76,2.58,5.76,5.76
			c0,3.18-2.58,5.76-5.76,5.76H168.85z"/>
		<path class="st0" d="M228.79,167.42c-3.18,0-5.76-2.58-5.76-5.76c0-3.18,2.58-5.76,5.76-5.76h29.88c3.18,0,5.76,2.58,5.76,5.76
			c0,3.18-2.58,5.76-5.76,5.76H228.79z"/>
		<path class="st0" d="M48.97,212.07c-3.18,0-5.76-2.58-5.76-5.76c0-3.18,2.58-5.76,5.76-5.76h29.89c3.18,0,5.76,2.58,5.76,5.76
			c0,3.18-2.58,5.76-5.76,5.76H48.97z"/>
		<path class="st0" d="M108.91,212.07c-3.18,0-5.76-2.58-5.76-5.76c0-3.18,2.58-5.76,5.76-5.76h29.89c3.18,0,5.76,2.58,5.76,5.76
			c0,3.18-2.58,5.76-5.76,5.76H108.91z"/>
		<path class="st0" d="M168.85,212.07c-3.18,0-5.76-2.58-5.76-5.76c0-3.18,2.58-5.76,5.76-5.76h29.88c3.18,0,5.76,2.58,5.76,5.76
			c0,3.18-2.58,5.76-5.76,5.76H168.85z"/>
		<path class="st0" d="M48.97,256.73c-3.18,0-5.76-2.58-5.76-5.76s2.58-5.76,5.76-5.76h29.89c3.18,0,5.76,2.58,5.76,5.76
			s-2.58,5.76-5.76,5.76H48.97z"/>
		<path class="st0" d="M108.91,256.73c-3.18,0-5.76-2.58-5.76-5.76s2.58-5.76,5.76-5.76h29.89c3.18,0,5.76,2.58,5.76,5.76
			s-2.58,5.76-5.76,5.76H108.91z"/>
		<path class="st0" d="M68.68,5.76c0-3.18,2.58-5.76,5.76-5.76c3.18,0,5.76,2.58,5.76,5.76v45.55c0,3.18-2.58,5.76-5.76,5.76
			c-3.18,0-5.76-2.58-5.76-5.76V5.76z"/>
		<path class="st0" d="M227.44,5.76c0-3.18,2.58-5.76,5.76-5.76c3.18,0,5.76,2.58,5.76,5.76v45.55c0,3.18-2.58,5.76-5.76,5.76
			c-3.18,0-5.76-2.58-5.76-5.76V5.76z"/>
	</g>
</g>
<g id="Master_Layer_2">
</g>
</svg>
