<?xml version="1.0" encoding="utf-8"?>
<!-- Generator: Adobe Illustrator 24.0.2, SVG Export Plug-In . SVG Version: 6.00 Build 0)  -->
<svg version="1.1" id="Layer_1" xmlns="http://www.w3.org/2000/svg" xmlns:xlink="http://www.w3.org/1999/xlink" x="0px" y="0px"
	 viewBox="0 0 408 408" style="enable-background:new 0 0 408 408;" xml:space="preserve">
<style type="text/css">
	.st0{fill-rule:evenodd;clip-rule:evenodd;fill:#861316;}
</style>
<g id="Layer_1_1_">
	<g>
		<path class="st0" d="M388.49,204c0-50.9-20.62-96.98-53.96-130.37c-34.92-34.95-82.09-54.34-131.5-54.13
			c-50.56,0.26-96.32,20.86-129.49,54.04C40.15,106.93,19.51,153.06,19.51,204s20.65,97.07,54.04,130.46s79.51,54.04,130.46,54.04
			s97.07-20.65,130.46-54.04S388.49,254.94,388.49,204L388.49,204z M372.74,204c0,46.6-18.89,88.78-49.42,119.32
			c-30.54,30.54-72.72,49.42-119.32,49.42s-88.78-18.89-119.32-49.42C54.15,292.78,35.26,250.59,35.26,204
			c0-46.6,18.89-88.78,49.42-119.32c30.34-30.34,72.19-49.18,118.43-49.42c45.18-0.2,88.33,17.53,120.27,49.51
			C353.88,115.3,372.74,157.45,372.74,204z"/>
		<path class="st0" d="M197.63,192.17c-4.2,2.27-7.06,6.72-7.06,11.83c0,7.42,6.02,13.44,13.44,13.44c4.35,0,8.23-2.07,10.68-5.29
			h60.74l9.93-6.48l-9.88-6.26h-58.84c-1.13-3.11-3.38-5.68-6.25-7.23v-92.14l-6.86-9.25l-5.89,9.26L197.63,192.17z"/>
		
			<rect x="270.59" y="57.05" transform="matrix(0.5 -0.866 0.866 0.5 88.1049 278.6673)" class="st0" width="29.59" height="11.96"/>
		
			<rect x="330.17" y="116.62" transform="matrix(0.866 -0.5 0.5 0.866 -15.0806 188.9109)" class="st0" width="29.59" height="11.96"/>
		
			<rect x="338.98" y="270.61" transform="matrix(0.5 -0.866 0.866 0.5 -74.6902 441.4467)" class="st0" width="11.96" height="29.59"/>
		
			<rect x="279.41" y="330.15" transform="matrix(0.866 -0.5 0.5 0.866 -134.2397 188.9118)" class="st0" width="11.96" height="29.59"/>
		
			<rect x="107.81" y="339" transform="matrix(0.5 -0.866 0.866 0.5 -237.4594 278.6637)" class="st0" width="29.59" height="11.96"/>
		
			<rect x="48.24" y="279.4" transform="matrix(0.866 -0.5 0.5 0.866 -134.2491 69.7526)" class="st0" width="29.59" height="11.96"/>
		<path class="st0" d="M194.83,59.2V23.24h18.33V59.2H194.83L194.83,59.2z M348.8,194.83h35.96v18.33H348.8V194.83L348.8,194.83z
			 M213.17,348.8v35.96h-18.33V348.8H213.17L213.17,348.8z M59.2,213.17H23.24v-18.33H59.2V213.17z"/>
		
			<rect x="57.05" y="107.82" transform="matrix(0.5 -0.866 0.866 0.5 -74.6716 115.892)" class="st0" width="11.96" height="29.59"/>
		
			<rect x="116.63" y="48.24" transform="matrix(0.866 -0.5 0.5 0.866 -15.0908 69.7516)" class="st0" width="11.96" height="29.59"/>
	</g>
</g>
<g id="Master_Layer_3">
</g>
</svg>
