<?xml version="1.0" encoding="UTF-8"?>
<svg enable-background="new 0 0 576 576" version="1.1" viewBox="0 0 576 576" xml:space="preserve" xmlns="http://www.w3.org/2000/svg">
<style type="text/css">
	.st0{fill:#D0D1D1;}
	.st1{fill:#737372;}
	.st2{fill:#908F8F;}
	.st3{fill:#C7C6C5;}
	.st4{fill:#FFFFFF;}
	.st5{fill:#009ADE;}
	.st6{opacity:0.5;fill:#FFFFFF;enable-background:new    ;}
	.st7{fill:#F2F0F0;}
	.st8{fill:#3E3D3D;}
</style>

	
		<path class="st0" d="m138.9 414.9h-34.9v-50c0-36.3 29.5-65.8 65.8-65.8h81.6v34.9h-81.6c-17 0-30.9 13.9-30.9 30.9v50z"/>
		<rect class="st1" x="284.1" y="109.8" width="43.2" height="159.7"/>
		<rect class="st2" x="275" y="254.3" width="61.4" height="17.8"/>
		<path class="st0" d="m306.1 422.1h-0.8c-20.7 0-37.4-16.8-37.4-37.4v-112.6h75.5v112.6c0.1 20.6-16.7 37.4-37.3 37.4z"/>
		<path class="st0" d="m267.9 337.7h-41.3v-42.3h41.3c10.5 13.9 11.1 28 0 42.3z"/>
		
			<path class="st2" d="m329.5 227.3h-47.6c-1.3 0-2.3-1-2.3-2.4v-16.1c0-1.3 1-2.3 2.3-2.3h47.6c1.3 0 2.3 1.1 2.3 2.3v16.2c0 1.3-1 2.3-2.3 2.3z"/>
			
				<path class="st3" d="m293.6 227.4c0 1-0.8 1.7-1.7 1.7-1 0-1.7-0.8-1.7-1.7v-20.9c0-0.9 0.8-1.7 1.7-1.7s1.7 0.8 1.7 1.7v20.9z"/>
				<path class="st3" d="m321.2 227.4c0 1-0.8 1.7-1.7 1.7-1 0-1.7-0.8-1.7-1.7v-20.9c0-0.9 0.8-1.7 1.7-1.7s1.7 0.8 1.7 1.7v20.9z"/>
			
		
		
			<path class="st2" d="m239.5 292.8v47.6c0 1.3-1.1 2.3-2.3 2.3h-16.1c-1.3 0-2.3-1-2.3-2.3v-47.6c0-1.3 1-2.3 2.3-2.3h16.1c1.2-0.1 2.3 1 2.3 2.3z"/>
			
				<path class="st4" d="m239.6 328.6c1 0 1.7 0.8 1.7 1.7 0 1-0.8 1.7-1.7 1.7h-20.9c-1 0-1.7-0.7-1.7-1.7 0-0.9 0.7-1.7 1.7-1.7h20.9z"/>
				<path class="st4" d="m239.6 301.1c1 0 1.7 0.8 1.7 1.7s-0.8 1.7-1.7 1.7h-20.9c-1 0-1.7-0.8-1.7-1.7 0-1 0.7-1.7 1.7-1.7h20.9z"/>
			
		
	
	<rect class="st2" x="263.8" y="371.8" width="83.8" height="19.1"/>
	<path class="st4" d="m278.7 391.4c0 1-0.8 1.9-1.9 1.9-1 0-1.8-0.8-1.8-1.9v-19.9c0-1 0.8-1.9 1.8-1.9s1.9 0.8 1.9 1.9v19.9z"/>
	<path class="st4" d="m307.6 391.4c0 1-0.8 1.9-1.9 1.9-1 0-1.8-0.8-1.8-1.9v-19.9c0-1 0.8-1.9 1.8-1.9s1.9 0.8 1.9 1.9v19.9z"/>
	<path class="st4" d="m336.4 391.4c0 1-0.8 1.9-1.9 1.9-1 0-1.8-0.8-1.8-1.9v-19.9c0-1 0.8-1.9 1.8-1.9s1.9 0.8 1.9 1.9v19.9z"/>

<path class="st5" d="m463.4 514.6c0 17.1-76 31-169.8 31s-169.8-13.9-169.8-31 76-31 169.8-31 169.8 13.9 169.8 31z"/>
<path class="st6" d="m437.3 504.1c-42.3 26.4-146.7 27.4-262.3 23.8 27.3 4.6 65.5 8.1 113.9 8.1 102.3 0 159.6-15.6 162.9-23.8-0.9-2.3-5.9-5.2-14.5-8.1z"/>
<path class="st5" d="m436.6 478.9c0 9.9-43.7 17.8-97.7 17.8-53.9 0-97.7-8-97.7-17.8s43.7-17.8 97.7-17.8 97.7 8 97.7 17.8z"/>
<path class="st5" d="m366.5 456.7c0 7.9-35.1 14.3-78.5 14.3s-78.5-6.4-78.5-14.3 35.2-14.4 78.5-14.4c43.4 0 78.5 6.5 78.5 14.4z"/>
<path class="st5" d="m255.9 431.4c0 3.8-16.7 6.8-37.3 6.8s-37.3-3-37.3-6.8 16.7-6.8 37.3-6.8 37.3 3 37.3 6.8z"/>
<path class="st5" d="m180.6 467.9c0 2-8.7 3.6-19.5 3.6s-19.5-1.6-19.5-3.6 8.8-3.5 19.5-3.5c10.8-0.1 19.5 1.5 19.5 3.5z"/>
<path class="st3" d="m382.8 184.9h-154.2c-49.6 0-89.8-40.2-89.8-89.8v-49.7h333.8v49.6c0 49.7-40.2 89.9-89.8 89.9z"/>
<path class="st4" d="m162.9 66.1h-13.7v29c0 43.4 35 78.7 78.2 79.4-44-18.9-66-39-64.5-108.4z"/>
<path class="st7" d="m483.7 45.4c0 7-5.7 12.7-12.6 12.7h-330.8c-7 0-12.6-5.7-12.6-12.7s5.7-12.7 12.6-12.7h330.8c7 0.1 12.6 5.7 12.6 12.7z"/>
<rect class="st8" x="275" y="184.9" width="61.4" height="16.6"/>
</svg>
