<?xml version="1.0" encoding="utf-8"?>
<!-- Generator: Adobe Illustrator 24.0.0, SVG Export Plug-In . SVG Version: 6.00 Build 0)  -->
<svg version="1.1" id="Layer_1" xmlns="http://www.w3.org/2000/svg" xmlns:xlink="http://www.w3.org/1999/xlink" x="0px" y="0px"
	 viewBox="0 0 576 576" style="enable-background:new 0 0 576 576;" xml:space="preserve">
<style type="text/css">
	.st0{fill:#D0D1D1;}
	.st1{fill:#FFFFFF;}
	.st2{fill:#3E3D3D;}
	.st3{fill:#151515;}
	.st4{fill:#A41E22;}
	.st5{fill:#C7C6C5;}
	.st6{fill:#6F7070;}
	.st7{fill:#C9C9C9;}
	.st8{opacity:0.5;}
	.st9{fill:#EDEDEE;}
	.st10{fill:#B67334;}
	.st11{fill:#CD2527;}
	.st12{fill:#E82725;}
	.st13{fill:#F78F1E;}
</style>
<g>
	<g>
		<path class="st0" d="M328.3,161.7c0,2.7-2.2,4.9-4.8,4.9h-45.9c-2.7,0-4.9-2.2-4.9-4.9l0,0c0-2.7,2.2-4.9,4.9-4.9h45.9
			C326.2,156.9,328.3,159.1,328.3,161.7L328.3,161.7z"/>
		<path class="st1" d="M81.2,336.5c0.3,0.7,0.7,1.3,1.1,1.9c0.2,0.2,0.5,0.6,0.7,0.8c0.2,0.3,0.5,0.5,0.7,0.8
			c0.3,0.2,0.6,0.5,0.9,0.7c0.5,0.3,1,0.6,1.5,0.9h0c0,0,0.1,0,0.1,0c0.4,0.2,0.9,0.4,1.3,0.5l3,1h413.1c0.1-0.1,0.3-0.2,0.4-0.4
			c0.3-0.3,0.5-0.6,0.7-0.9c0.1-0.1,0.2-0.3,0.3-0.4c0.2-0.2,0.4-0.5,0.5-0.8c0.3-0.5,0.6-1,0.8-1.6l-0.1-4.1l0-8l-0.2-15.4
			l-0.1-13.7v-0.1l-0.1-9.4l-0.1-9.9l-0.2-13.4v-2.5c0-5.1-0.9-10-2.5-14.8l-22.5-67.4c-0.4-1.1-0.8-2.2-1.3-3.2
			c-0.6-1.2-1.3-2.3-2.1-3.3H188.8c-0.8,1-1.5,2.1-2.2,3.3c-1,1.7-1.3,2.2-2.2,4.3c0,0,0,0,0,0l1.7,1.2h5.4c3.4,0,6.1,2.8,6.1,6.2
			v51.6c0,5.1-4.1,9.2-9.2,9.2h-23.4l-3.9,1.3c-0.7,1.1-73,23.5-73,23.5c-5.2,1.9-7,6.4-7.6,11.3c-0.4,2.9-0.4,5.9-0.4,8.7v10.4
			l0,2.3v7.7l0,3.2v4.7l0,5.1v3.9C80.1,333.5,80.5,335,81.2,336.5C81.1,336.5,81.2,336.5,81.2,336.5z"/>
		<path class="st2" d="M495.7,334.8c0,2.1-0.1,4.2-0.5,6.2c-0.4,2.4-0.9,4.8-1.7,7.1h-2l-75-0.3l-2.5-0.8l-2.3-0.7
			c-0.9-3.3-1.5-6.8-1.5-10.4c0-0.4,0-0.7,0-1.1c0-23.6,19.1-42.8,42.8-42.8C476.6,292,495.7,311.2,495.7,334.8z"/>
		<path class="st2" d="M184.4,334.8c0,2.1-0.2,4.2-0.5,6.2c-0.3,2.4-0.9,4.8-1.7,7.1h-2l-75-0.3l-2.5-0.8l-2.3-0.7
			c-0.9-3.3-1.5-6.8-1.5-10.4c-0.1-0.4-0.1-0.7-0.1-1.1c0-23.6,19.2-42.8,42.8-42.8C165.3,292,184.4,311.2,184.4,334.8z"/>
		<path class="st2" d="M507.6,334.8c-0.5,5.7-4.5,10.6-10.1,12.2l-5.8,1.7l-2.2,0.7l-75.4-0.4l-231.9-1h-2l-75-0.3l-2.5-0.8
			l-2.3-0.7l-12.8-4.1c-2.9-0.9-5.2-3-6.4-5.6v-1.7l17.8,1.1l81.4,5.1h3.7l230.2,0.1L507.6,334.8z"/>
		<g>
			<path class="st3" d="M79.4,339.1c0,3.3-2.6,5.9-5.9,5.9l0,0c-8.4,0-8.8-20.4,0-20.5l0,0c3.3,0,5.9,2.6,5.9,5.9V339.1z"/>
			<path class="st0" d="M95.2,334.8c0,3.7-3.1,6.8-6.8,6.8H77c-3.8,0-6.9-3.1-6.9-6.8l0,0c0-3.8,3.1-6.8,6.9-6.8h11.3
				C92.1,327.9,95.2,331,95.2,334.8L95.2,334.8z"/>
		</g>
		<path class="st4" d="M265.5,192.5V240c0,2.2-0.9,4.2-2.3,5.6c-1.5,1.5-3.5,2.4-5.7,2.4h-42.4c-4.5,0-8-3.6-8-8v-47.5
			c0-2.1,0.8-3.9,2.1-5.4c1.4-1.6,3.5-2.7,5.9-2.7h42.4C262,184.4,265.5,188.1,265.5,192.5z"/>
		<path class="st5" d="M257.6,181.8h-42.4c-5.9,0-10.7,4.8-10.7,10.7v130.4c0,7.6,6.2,13.7,13.7,13.7h0.7
			c27.1,0,49.2-22.1,49.2-49.3v-94.9C268.1,186.6,263.4,181.8,257.6,181.8z M265.6,240c0,1.1-0.3,2.1-0.6,3.1
			c-0.2,0.5-0.4,0.9-0.8,1.3c-0.2,0.5-0.6,0.9-0.9,1.2c0,0-0.1,0-0.1,0c-1.5,1.5-3.4,2.4-5.6,2.4h-42.4c-4.5,0-8-3.6-8-8v-47.5
			c0-0.5,0-1,0.1-1.5c0.1-0.5,0.2-1,0.4-1.4c0.1-0.4,0.3-0.7,0.5-1c0,0,0,0,0,0l0.1-0.1c-0.1,0,0-0.1,0-0.1c0.2-0.3,0.4-0.6,0.7-0.9
			c0-0.1,0-0.2,0.2-0.2c0.2-0.2,0.3-0.4,0.6-0.6c0.3-0.3,0.6-0.6,1-0.8c0.3-0.2,0.7-0.4,1.1-0.6c0.5-0.2,1-0.4,1.5-0.5
			c0.2,0,0.3-0.1,0.5-0.1c0.4,0,0.8-0.1,1.2-0.1h42.4c0.4,0,0.9,0.1,1.3,0.1c0.3,0.1,0.7,0.1,0.9,0.2c0.1,0,0.1,0,0.2,0.1
			c0.3,0.1,0.6,0.2,0.9,0.4c0.4,0.1,0.8,0.4,1.1,0.6c0.4,0.3,0.9,0.6,1.2,1c1.4,1.4,2.3,3.4,2.3,5.6V240z"/>
		<g>
			<path class="st3" d="M511.1,338.1c0,3.3,2.9,5.9,6.4,5.9l0,0c9,0,9.6-20.5,0-20.5l0,0c-3.5,0-6.4,2.7-6.4,5.9V338.1z"/>
			<path class="st0" d="M494,333.7c0,3.8,3.1,6.8,6.8,6.8h11.3c3.8,0,6.8-3.1,6.8-6.8l0,0c0-3.8-3-6.8-6.8-6.8h-11.3
				C497.1,326.9,494,330,494,333.7L494,333.7z"/>
		</g>
		<g>
			<path class="st2" d="M255.4,265.4h-8.7c-2.1,0-3.7-1.7-3.7-3.7v-0.1c0-2.1,1.7-3.7,3.7-3.7h8.7c2.1,0,3.7,1.7,3.7,3.7v0.1
				C259.2,263.8,257.5,265.4,255.4,265.4z"/>
			<path class="st1" d="M256.2,261.6c0,0.8-3.8,1.4-8.5,1.4c-4.7,0-8.5-0.6-8.5-1.4c0-0.8,3.8-1.4,8.5-1.4
				C252.4,260.1,256.2,260.8,256.2,261.6z"/>
		</g>
		<g>
			<path class="st2" d="M92,311.8c0,0.9-0.9,1.6-1.9,1.6h-9.9v-3.2h9.9C91.2,310.2,92,310.9,92,311.8z"/>
			<path class="st2" d="M92,316.5c0,0.9-0.9,1.6-1.9,1.6h-10l0-3.2h10C91.2,314.9,92,315.6,92,316.5z"/>
			<path class="st2" d="M92,321.2c0,0.9-0.9,1.6-1.9,1.6h-10l0-3.2h10C91.2,319.6,92,320.3,92,321.2z"/>
		</g>
		<path class="st2" d="M479.5,177.2H186.6c8.6-15.1,22.2-15.1,56.5-15l213.2,1.2C463.2,163.4,474.4,167,479.5,177.2z"/>
		<g>
			<path class="st6" d="M165.1,339.6c0,13-10.6,23.6-23.6,23.6c-13,0-23.6-10.6-23.6-23.6c0-13,10.6-23.6,23.6-23.6
				C154.5,316,165.1,326.5,165.1,339.6z"/>
			<path class="st3" d="M141.5,302.6c-19.3-0.1-35.2,14.7-36.9,33.6c-0.1,1.1-0.1,2.2-0.1,3.3c0,2.8,0.3,5.6,0.9,8.2
				c3.7,16.5,18.5,28.8,36.1,28.8c17.5,0,32.2-12.1,36.1-28.5c0.6-2.3,0.9-4.7,1-7.2c0-0.4,0-0.9,0-1.3
				C178.5,319.2,162,302.6,141.5,302.6z M164.3,340c-0.1,2.8-0.6,5.5-1.6,8c-3.3,8.4-11.6,14.3-21.2,14.3c-9.7,0-17.9-6-21.3-14.5
				c-1-2.5-1.5-5.3-1.5-8.2c0-0.8,0-1.6,0.1-2.4c1.2-11.5,10.9-20.3,22.7-20.3c12.6,0,22.8,10.2,22.8,22.8V340z"/>
			<path class="st7" d="M155.8,339.6c0,7.9-6.4,14.3-14.3,14.3c-7.9,0-14.3-6.4-14.3-14.3c0-7.9,6.4-14.3,14.3-14.3
				C149.4,325.3,155.8,331.7,155.8,339.6z"/>
		</g>
		<g>
			<path class="st6" d="M477.9,339.6c0,13-10.6,23.6-23.6,23.6c-13,0-23.6-10.6-23.6-23.6c0-13,10.6-23.6,23.6-23.6
				C467.3,316,477.9,326.5,477.9,339.6z"/>
			<path class="st3" d="M491.1,335.9L491.1,335.9c-1.8-18.7-17.5-33.3-36.8-33.3c-20.4-0.1-37,16.5-37.1,37c0,0.5,0,0.9,0,1.4
				c0.1,2.3,0.4,4.6,0.9,6.8c0.1,0.4,0.2,0.9,0.3,1.3c4.2,15.9,18.6,27.6,35.8,27.6c17.1,0,31.5-11.6,35.8-27.4
				c0.1-0.4,0.2-0.8,0.3-1.1c0.7-2.7,1-5.6,1-8.5C491.3,338.4,491.2,337.2,491.1,335.9z M474.9,349.3c-3.7,7.7-11.5,13-20.6,13
				c-9.2,0-17-5.4-20.6-13.2c-0.2-0.4-0.4-0.8-0.6-1.3c-0.9-2.5-1.5-5.1-1.5-7.9v-0.4c0-12.6,10.2-22.8,22.8-22.8
				c11.7,0,21.3,8.8,22.6,20.1c0.1,0.9,0.1,1.8,0.1,2.7c0,3-0.6,5.8-1.6,8.4C475.3,348.5,475.1,348.9,474.9,349.3z"/>
			<path class="st7" d="M468.6,339.6c0,7.9-6.4,14.3-14.3,14.3c-7.9,0-14.3-6.4-14.3-14.3c0-7.9,6.4-14.3,14.3-14.3
				C462.2,325.3,468.6,331.7,468.6,339.6z"/>
		</g>
		<path class="st4" d="M197.8,240.5v-51.6c0-3.4-2.8-6.2-6.2-6.2h-5.4c-9,21.7-15.9,44-21,67h23.4
			C193.6,249.7,197.8,245.6,197.8,240.5z"/>
		<path class="st5" d="M191.6,181.4h-7.2c0,0,0.4,1.2,1.2,2.6h6c2.7,0,4.9,2.2,4.9,4.9v51.6c0,4.4-3.5,7.9-7.9,7.9h-23.1
			c0-0.1-3.1,1.9-4.2,2.6l2.2,0.1h25c5.8,0,10.5-4.7,10.5-10.5v-51.6C199.1,184.8,195.7,181.4,191.6,181.4z"/>
		<g class="st8">
			<path class="st1" d="M254.7,246.6h-16.5l-27.7-58.2c1.4-1.6,3.4-2.6,5.7-2.6h9.6L254.7,246.6z"/>
			<path class="st1" d="M262.1,244.3c-1.4,1.5-3.4,2.3-5.4,2.3h0l-28.9-60.8h6.6L262.1,244.3z"/>
		</g>
		<g>
			<path class="st9" d="M439.4,249.7c0,36.6-29.7,66.2-66.2,66.2c-36.6,0-66.2-29.7-66.2-66.2c0-36.6,29.7-66.2,66.2-66.2
				C409.8,183.5,439.4,213.1,439.4,249.7z"/>
			<g>
				<path class="st10" d="M290.1,246.2v7.1c0,1.5,1.2,2.6,2.6,2.6h119.5v-12.4H292.7C291.3,243.5,290.1,244.7,290.1,246.2z"/>
				<g>
					<path class="st11" d="M419.8,242v15.3h-12.7c-1.3,0-2.4-1.1-2.4-2.4v-10.5c0-1.3,1.1-2.4,2.4-2.4H419.8z"/>
					<path class="st12" d="M446.3,217c1.4,0,2.8,0.1,4.1,0.3v64.9c-1.3,0.2-2.7,0.3-4.1,0.3c-1.9,0-3.8-0.2-5.7-0.5
						c-15.4-2.7-27-16.1-27-32.2c0-16.1,11.7-29.5,27-32.2C442.5,217.2,444.4,217,446.3,217z"/>
					<path class="st11" d="M443.1,214.3h5c1.3,0,2.4,1.1,2.4,2.4v66.1c0,1.3-1.1,2.4-2.4,2.4h-5c-1.3,0-2.4-1-2.4-2.4v-66.1
						C440.7,215.3,441.7,214.3,443.1,214.3z"/>
				</g>
			</g>
			<g>
				<path class="st4" d="M303.8,209.8c-1.2-1.2-2.7-1.9-4.6-1.9H293v26.4h3.9v-9.9h2.3c1.7,0,3.2-0.6,4.4-1.9
					c1.2-1.2,1.8-2.7,1.8-4.5v-3.8C305.4,212.4,304.9,210.9,303.8,209.8z M301.6,218.1c0,0.6-0.2,1.2-0.7,1.6
					c-0.4,0.4-1,0.6-1.6,0.6h-2.4v-8.4h2.4c0.7,0,1.2,0.2,1.7,0.7c0.4,0.4,0.6,1,0.6,1.6V218.1z"/>
				<path class="st4" d="M312.6,230.3v-22.4h-4v26.4h10.8v-3.9H312.6z"/>
				<path class="st4" d="M330.6,207.9v20.4c0,0.6-0.2,1.1-0.7,1.6c-0.4,0.5-1,0.7-1.6,0.7c-0.6,0-1.1-0.2-1.6-0.7
					c-0.4-0.4-0.7-1-0.7-1.6v-20.4h-3.9v20.4c0,1.8,0.6,3.2,1.8,4.5c1.2,1.2,2.7,1.8,4.5,1.8c1.7,0,3.2-0.6,4.4-1.8
					c1.2-1.2,1.9-2.7,1.9-4.5v-20.4H330.6z"/>
				<path class="st4" d="M351.3,207.9l-3.6,18.9l-3.7-18.9h-5.7v26.4h4v-16.5l3.9,16.5h3.2l3.4-16.6v16.6h4v-26.4H351.3z"/>
				<path class="st4" d="M373.6,225.1c-0.2-1-0.5-1.9-0.9-2.6c-0.6-1-1.4-1.6-2.2-2c0.5-0.2,1-0.6,1.4-1c1-1.1,1.4-2.5,1.4-4.2
					c0-1.1-0.1-2-0.3-2.8c-0.5-1.5-1.3-2.6-2.3-3.2c-1.3-0.9-2.7-1.2-4.3-1.2h-6v26.4h7.4c1,0,2-0.3,3-0.9c0.9-0.5,1.6-1.2,2.1-2.2
					c0.6-1.1,1-2.6,1-4.3C373.7,226.2,373.7,225.6,373.6,225.1z M364.6,211.9h1.7c0.8,0,1.4,0.3,1.9,0.8c0.5,0.5,0.8,1.4,0.8,2.5
					c0,0.7-0.1,1.2-0.2,1.7c-0.4,1.2-1.2,1.8-2.5,1.8h-1.7V211.9z M369.1,228.3c-0.5,1.4-1.5,2-2.8,2h-1.7v-7.9h1.7
					c1,0,1.7,0.3,2.3,1c0.5,0.6,0.8,1.7,0.8,3.2C369.3,227.2,369.3,227.8,369.1,228.3z"/>
				<path class="st4" d="M377.2,207.9v26.4h4v-26.4H377.2z"/>
				<path class="st4" d="M394.5,207.9v17.7l-5.3-17.7h-4.5v26.4h4v-16.9l5.4,16.9h4.3v-26.4H394.5z"/>
				<path class="st4" d="M414.5,216.9v-3c0-1.7-0.6-3.2-1.8-4.4c-1.2-1.3-2.7-1.9-4.5-1.9c-1.7,0-3.2,0.6-4.4,1.9
					c-1.2,1.2-1.9,2.7-1.9,4.4v14.4c0,1.7,0.6,3.2,1.8,4.4c1.2,1.2,2.7,1.9,4.5,1.9c1.7,0,3.2-0.6,4.4-1.9c1.2-1.2,1.9-2.7,1.9-4.4
					v-9.2h-6.4v4h2.2v5.1c0,0.6-0.2,1.2-0.7,1.6c-0.4,0.4-0.9,0.7-1.6,0.7c-0.7,0-1.2-0.2-1.6-0.7c-0.4-0.5-0.7-1-0.7-1.6v-14.4
					c0-0.6,0.2-1.2,0.7-1.6c0.4-0.5,1-0.7,1.6-0.7c0.6,0,1.2,0.2,1.6,0.7c0.5,0.4,0.7,1,0.7,1.6v3.1H414.5z"/>
			</g>
			<g>
				<path class="st4" d="M306.2,281.3c-0.2-0.4-0.4-0.8-0.7-1.3c-0.6-1-1.3-2-2.4-3c-0.3-0.3-0.9-0.9-1.9-1.7
					c-0.9-0.7-1.5-1.3-1.9-1.7c-1.1-1.3-1.6-2.6-1.6-3.9c0-0.8,0.2-1.5,0.5-2c0.4-0.7,1-1.1,1.7-1.1c0.7,0,1.3,0.2,1.7,0.7
					c0.5,0.6,0.9,1.5,1,2.6l4-0.7c-0.1-1.2-0.4-2.3-0.9-3.2c-0.5-1-1.1-1.7-2-2.2c-1.1-0.6-2.3-1-3.8-1c-1.5,0-2.9,0.4-3.9,1.2
					c-1.7,1.3-2.5,3.2-2.5,5.7c0,1.4,0.3,2.7,0.9,3.9c0.6,1.1,1.5,2.3,2.9,3.6c1.7,1.6,2.9,2.7,3.7,3.5c1.1,1.1,1.6,2.2,1.6,3.4
					c0,0.8-0.2,1.5-0.5,1.9c-0.5,0.9-1.2,1.4-2.2,1.4c-0.6,0-1.2-0.3-1.7-0.8c-0.7-0.7-1.1-1.9-1.3-3.5l-3.9,0.3
					c0.1,1.5,0.4,2.8,0.9,4c0.5,1.1,1.2,2.1,2.2,2.7c1,0.8,2.4,1.2,4,1.2c0.9,0,1.7-0.1,2.3-0.3c1.3-0.4,2.2-1,2.9-2
					c1.1-1.4,1.5-3,1.5-5C306.8,283.2,306.6,282.3,306.2,281.3z"/>
				<path class="st4" d="M322.2,267.4v-4.2h-11.9v27.7h11.9v-4.2h-7.7v-7.6h5.6v-4.2h-5.6v-7.5H322.2z"/>
				<path class="st4" d="M335.9,278.8c1.5-1.3,2.3-3,2.3-5v-4c0-2-0.5-3.6-1.4-4.7c-1.1-1.3-2.8-1.9-5.1-1.9H325v27.7h4.2v-10.5h2.8
					l2.5,10.5h4.5L335.9,278.8z M334.1,273.9c0,0.6-0.2,1.2-0.7,1.7c-0.5,0.4-1,0.6-1.7,0.6h-2.5v-8.9h2.5c1.6,0,2.4,0.8,2.4,2.5
					V273.9z"/>
				<path class="st4" d="M352.2,263.2l-3.5,21.6l-3.5-21.6h-4.4l5,27.7h5.8l5-27.7H352.2z"/>
				<path class="st4" d="M360,263.2v27.7h4.2v-27.7H360z"/>
				<path class="st4" d="M381.2,272.6v-3.2c0-1.9-0.7-3.4-2-4.7c-1.3-1.3-2.8-1.9-4.7-1.9c-1.8,0-3.4,0.6-4.7,1.9
					c-1.3,1.3-1.9,2.8-1.9,4.7v15.1c0,1.8,0.6,3.4,1.9,4.7c1.3,1.3,2.9,1.9,4.7,1.9c1.8,0,3.4-0.6,4.7-1.9c1.3-1.3,2-2.9,2-4.7v-3.9
					h-4.3v3.8c0,0.7-0.2,1.3-0.7,1.7c-0.5,0.5-1.1,0.7-1.7,0.7c-0.7,0-1.2-0.2-1.7-0.7c-0.5-0.4-0.7-1-0.7-1.7v-15.2
					c0-0.7,0.2-1.2,0.7-1.7c0.4-0.5,1-0.7,1.7-0.7c0.7,0,1.2,0.2,1.7,0.7c0.5,0.5,0.7,1.1,0.7,1.7v3.2H381.2z"/>
				<path class="st4" d="M396.5,267.4v-4.2h-11.9v27.7h11.9v-4.2h-7.7v-7.6h5.6v-4.2h-5.6v-7.5H396.5z"/>
			</g>
		</g>
	</g>
	<path class="st13" d="M101.2,294.2c0,4.6-3.8,8.4-8.4,8.4H80.3v-8.1c0-2.7,0-5.8,0.4-8.7h12.2C97.5,285.8,101.2,289.5,101.2,294.2z
		"/>
	<path class="st12" d="M506.1,297.8h-8.6c-5.3,0-9.6-4.4-9.6-9.7c0-5.3,4.3-9.6,9.6-9.6h8.4l0.1,9.9L506.1,297.8z"/>
</g>
</svg>
