<?xml version="1.0" encoding="utf-8"?>
<!-- Generator: Adobe Illustrator 24.0.2, SVG Export Plug-In . SVG Version: 6.00 Build 0)  -->
<svg version="1.1" id="Layer_1" xmlns:v="https://vecta.io/nano"
	 xmlns="http://www.w3.org/2000/svg" xmlns:xlink="http://www.w3.org/1999/xlink" x="0px" y="0px" viewBox="0 0 43.81 49.53"
	 style="enable-background:new 0 0 43.81 49.53;" xml:space="preserve">
<style type="text/css">
	.st0{fill:#861316;}
</style>
<g>
	<path class="st0" d="M43.8,35.15h-3.1V33.9h1.87v-1.87h1.25L43.8,35.15z M34.9,35.15h-5.78V33.9h5.78V35.15z M23.34,35.15h-5.78
		V33.9h5.78V35.15z M11.8,35.15H8.66v-3.12H9.9v1.87h1.88L11.8,35.15z M9.9,26.25H8.66v-5.78H9.9C9.9,20.47,9.9,26.25,9.9,26.25z
		 M9.9,14.69H8.66V8.9H9.9v5.78L9.9,14.69z M9.9,3.13H8.66V0h3.13v1.25H9.9L9.9,3.13z M34.9,1.25h-5.78V0h5.78
		C34.9,0,34.9,1.25,34.9,1.25z M23.34,1.25h-5.78V0h5.78C23.34,0,23.34,1.25,23.34,1.25z M43.8,3.13h-1.25V1.25H40.7V0h3.12
		L43.8,3.13z M43.8,26.25h-1.25v-5.78h1.25V26.25z M43.8,14.69h-1.25V8.9h1.25V14.69L43.8,14.69z"/>
	<path class="st0" d="M14.5,42.53c-0.22,0-0.44,0.02-0.65,0.06l-3.06-6.83L15,21.03l-0.5-1.5L9,31.78L3.5,19.53L3,21.03l4.2,14.74
		L4.14,42.6c-0.2-0.04-0.43-0.06-0.65-0.06c-1.93,0-3.5,1.57-3.5,3.5s1.57,3.5,3.5,3.5S7,47.96,7,46.03c0-1.14-0.56-2.21-1.49-2.87
		l1.55-2.87c0.41-0.77,1.11-1.34,1.95-1.6c0.82,0.26,1.53,0.82,1.95,1.6l1.55,2.87c-0.9,0.63-1.5,1.68-1.5,2.87
		c0,1.93,1.57,3.5,3.5,3.5s3.5-1.57,3.5-3.5c-0.01-1.94-1.58-3.5-3.5-3.5H14.5z M3.5,48.03c-1.1,0-2-0.9-2-2s0.9-2,2-2s2,0.9,2,2
		S4.6,48.03,3.5,48.03z M9.5,36.03v1h-1v-1H9.5z M14.5,48.03c-1.1,0-2-0.9-2-2s0.9-2,2-2s2,0.9,2,2S15.6,48.03,14.5,48.03z
		 M24.68,27.33V24.9c-1.4-0.02-2.84-0.46-3.68-1.06l0.58-1.6c0.87,0.58,2.12,1.04,3.47,1.04c1.7,0,2.87-1,2.87-2.36
		c0-1.32-0.94-2.14-2.72-2.87c-2.46-0.96-3.97-2.07-3.97-4.17c0-2,1.42-3.52,3.64-3.88V7.57h1.5V9.9c1.45,0.05,2.43,0.43,3.13,0.84
		l-0.6,1.6c-0.5-0.3-1.5-0.82-3.03-0.82c-1.85,0-2.55,1.1-2.55,2.07c0,1.25,0.9,1.88,3,2.75c2.45,1,3.7,2.26,3.7,4.4
		c0,1.9-1.32,3.68-3.8,4.1v2.5H24.7L24.68,27.33z"/>
</g>
</svg>
