<?xml version="1.0" encoding="UTF-8"?>
<svg enable-background="new 0 0 96.1 96.1" version="1.1" viewBox="0 0 96.1 96.1" xml:space="preserve" xmlns="http://www.w3.org/2000/svg">
<style type="text/css">
	.st0{fill:#FFFFFF;}
</style>

	<path class="st0" d="m72.1 0h-12.5c-14 0-23.1 9.3-23.1 23.7v10.9h-12.5c-1.1 0-2 0.9-2 2v15.8c0 1.1 0.9 2 2 2h12.5v39.9c0 1.1 0.9 2 2 2h16.4c1.1 0 2-0.9 2-2v-40h14.7c1.1 0 2-0.9 2-2v-15.8c0-0.5-0.2-1-0.6-1.4s-0.9-0.6-1.4-0.6h-14.8v-9.2c0-4.4 1.1-6.7 6.8-6.7h8.4c1.1 0 2-0.9 2-2v-14.6c0-1.1-0.8-2-1.9-2z"/>

</svg>

