<?xml version="1.0" encoding="utf-8"?>
<!-- Generator: Adobe Illustrator 24.0.2, SVG Export Plug-In . SVG Version: 6.00 Build 0)  -->
<svg version="1.1" id="Layer_1" xmlns="http://www.w3.org/2000/svg" xmlns:xlink="http://www.w3.org/1999/xlink" x="0px" y="0px"
	 viewBox="0 0 414.44 361.59" style="enable-background:new 0 0 414.44 361.59;" xml:space="preserve">
<style type="text/css">
	.st0{fill:#FFFFFF;}
</style>
<path class="st0" d="M390.46,24.08C387.38,10.13,374.78,0,360.49,0H53.96c-14.29,0-26.9,10.13-29.98,24.08L0,132.69v0.95
	c0,20.94,11.1,39.34,27.72,49.63v147.77c0,16.85,13.71,30.56,30.56,30.56h298.92c16.85,0,30.56-13.71,30.56-30.56V182.59
	c16.04-10.41,26.67-28.46,26.67-48.95v-0.95L390.46,24.08z M99.26,133.1v0.54c0,22.57-18.36,40.93-40.93,40.93
	c-22.27,0-40.44-17.87-40.92-40.02L40.97,27.83c1.33-6.04,6.8-10.43,12.99-10.43h59.59L99.26,133.1z M198.52,133.64
	c0,22.57-18.36,40.93-40.93,40.93c-22.4,0-40.65-18.08-40.93-40.42L131.08,17.4h67.44V133.64z M215.92,133.64V17.4h67.44
	l14.41,116.75c-0.27,22.33-18.53,40.42-40.93,40.42C234.28,174.57,215.92,156.21,215.92,133.64z M293.89,321.11
	c-26.98,0-48.8-21.82-48.8-48.8c0-26.98,21.82-48.8,48.8-48.8c13.18,0,24.19,4.81,32.7,12.76l-13.25,12.76
	c-3.63-3.49-9.97-7.53-19.45-7.53c-16.66,0-30.26,13.8-30.26,30.82c0,17.01,13.6,30.82,30.26,30.82c19.31,0,26.56-13.87,27.68-21.06
	h-27.68v-16.73h46.09c0.42,2.44,0.77,4.88,0.77,8.09C340.74,301.31,322.06,321.11,293.89,321.11z M356.11,174.57
	c-22.57,0-40.93-18.36-40.93-40.93v-0.54L300.9,17.4h59.59c6.19,0,11.65,4.39,12.99,10.43l23.56,106.71
	C396.55,156.7,378.38,174.57,356.11,174.57z"/>
</svg>
