<?xml version="1.0" encoding="utf-8"?>
<!-- Generator: Adobe Illustrator 24.0.0, SVG Export Plug-In . SVG Version: 6.00 Build 0)  -->
<svg version="1.1" id="Layer_1" xmlns="http://www.w3.org/2000/svg" xmlns:xlink="http://www.w3.org/1999/xlink" x="0px" y="0px"
	 viewBox="0 0 576 576" style="enable-background:new 0 0 576 576;" xml:space="preserve">
<style type="text/css">
	.st0{fill:#D0D1D1;}
	.st1{fill:#908F8F;}
	.st2{fill:#737372;}
	.st3{fill:#C59073;}
	.st4{fill-rule:evenodd;clip-rule:evenodd;fill:#EEE699;}
	.st5{fill-rule:evenodd;clip-rule:evenodd;fill:#D78F28;}
	.st6{fill:#2A2929;}
	.st7{fill:#5C5C5B;}
	.st8{fill:#E01F26;}
	.st9{fill:#414141;}
	.st10{fill:#7C7B7B;}
	.st11{fill:#C2C2C2;}
	.st12{fill:#A41E22;}
	.st13{fill:#E1AB80;}
	.st14{fill:#151515;}
	.st15{fill:#FFFFFF;}
	.st16{opacity:0.1;fill:#070707;}
	.st17{opacity:0.1;fill:#FFFFFF;}
	.st18{fill:#284988;}
	.st19{opacity:5.000000e-02;fill:#070707;}
	.st20{fill-rule:evenodd;clip-rule:evenodd;fill:#FAA322;}
	.st21{fill:#272726;}
</style>
<g>
	<rect x="418.1" y="34" class="st0" width="65.2" height="509.7"/>
	<rect x="402.8" y="97.7" class="st0" width="95.6" height="168.8"/>
	<path class="st1" d="M507.6,182.8c0,31.4-25.5,56.9-56.9,56.9c-31.5,0-57-25.5-57-56.9c0-31.4,25.5-56.9,57-56.9
		C482.1,125.8,507.6,151.3,507.6,182.8z"/>
	<path class="st0" d="M495.1,182.8c0,24.6-19.9,44.5-44.4,44.5c-24.6,0-44.4-19.9-44.4-44.5c0-24.5,19.9-44.4,44.4-44.4
		C475.2,138.3,495.1,158.2,495.1,182.8z"/>
	<rect x="397.6" y="95.3" class="st2" width="106.1" height="17.8"/>
	<rect x="397.6" y="252.7" class="st2" width="106.1" height="17.8"/>
	<path class="st3" d="M275.2,385.9c-70.9,23.3-29,115.1,36,77.9l83.9-75.4l-13.8-55.7L275.2,385.9z"/>
	<polygon class="st4" points="420.7,316.1 352.8,339.3 371.5,408.2 434.3,365 	"/>
	<path class="st5" d="M362,344.2l9.5,64l23.6-16.2c8.9-4.6,6.8-5.3,18.8-5.7l27.6-6.2c7.3-22.1,16.2-43.5,14.3-68l-26,0.9l-0.1-11.5
		h0c-1.1,0.2-24.7,4.7-26.5,5.3c-7,2.1-12.7,7.2-15.9,13.9l-1.6,4L362,344.2z"/>
	<g>
		<g>
			<path class="st6" d="M412.5,168.3L412.5,168.3L412.5,168.3c0.2-2.7,0.8-5.3,2-7.9c4.5-9.7,14.9-17.1,30-11l23.3,8.2
				c3.7,1.3,6.1,4.9,5.8,8.8l-0.2,3.1l-35.5-2.1l-4.7,26.5l-1.7,29.6l-18.4-1.1l-0.6-50.5C412.5,170.8,412.4,169.5,412.5,168.3z"/>
			<path class="st7" d="M427.3,218.8l1.5-25.8l6.1-30.3l34.1,2c-0.4-1.3-1.3-2.4-2.7-2.9l-23.4-8.2l-0.1,0c-2.8-1.1-5.4-1.8-7.8-1.9
				c-10.1-0.6-14.8,7.2-16.4,10.6c-0.9,2-1.5,4-1.6,6.2v0.2c-0.1,0.9,0,1.9,0,2.8l0,0.2l0.5,46.5L427.3,218.8z"/>
			<path class="st6" d="M470.7,169.3c0-0.7,0.7-1.3,1.4-1.3c0.8,0,1.4,0.7,1.3,1.5c0,0.7-0.7,1.3-1.5,1.3
				C471.2,170.7,470.6,170.1,470.7,169.3z"/>
			<path class="st6" d="M467.9,169.2c0.1-0.7,0.7-1.3,1.5-1.3c0.7,0.1,1.3,0.7,1.3,1.4c0,0.8-0.7,1.4-1.5,1.3
				C468.5,170.6,467.9,169.9,467.9,169.2z"/>
			<path class="st6" d="M465.2,169c0-0.8,0.7-1.3,1.5-1.3c0.8,0,1.4,0.7,1.3,1.4c0,0.8-0.7,1.4-1.4,1.3
				C465.7,170.4,465.1,169.8,465.2,169z"/>
			<path class="st6" d="M462.4,168.8c0-0.7,0.7-1.3,1.4-1.3c0.8,0.1,1.4,0.7,1.3,1.5c0,0.8-0.7,1.4-1.5,1.3
				C462.9,170.2,462.4,169.6,462.4,168.8z"/>
			<path class="st6" d="M459.6,168.7c0-0.8,0.7-1.4,1.5-1.3c0.8,0,1.4,0.7,1.3,1.5c-0.1,0.8-0.7,1.4-1.5,1.3
				C460.2,170.1,459.6,169.4,459.6,168.7z"/>
			<path class="st6" d="M456.9,168.5c0-0.8,0.7-1.4,1.5-1.3c0.8,0,1.3,0.7,1.3,1.5c-0.1,0.7-0.7,1.3-1.4,1.3
				C457.4,169.9,456.9,169.3,456.9,168.5z"/>
			<path class="st6" d="M454.1,168.4c0.1-0.8,0.7-1.4,1.5-1.3c0.7,0.1,1.3,0.7,1.3,1.5c0,0.7-0.7,1.3-1.5,1.3
				C454.7,169.8,454.1,169.1,454.1,168.4z"/>
			<path class="st6" d="M451.4,168.2c0-0.8,0.7-1.4,1.5-1.3c0.8,0,1.4,0.7,1.3,1.5c0,0.8-0.7,1.4-1.5,1.3
				C451.9,169.6,451.3,168.9,451.4,168.2z"/>
			<path class="st6" d="M448.6,168c0-0.8,0.7-1.3,1.5-1.3c0.8,0,1.3,0.7,1.3,1.5c0,0.7-0.7,1.3-1.5,1.3
				C449.2,169.4,448.6,168.8,448.6,168z"/>
			<path class="st6" d="M445.9,167.9c0-0.8,0.7-1.3,1.4-1.3c0.8,0.1,1.4,0.7,1.3,1.5c0,0.7-0.7,1.3-1.5,1.3
				C446.4,169.3,445.8,168.6,445.9,167.9z"/>
			<path class="st6" d="M443.1,167.7c0-0.8,0.7-1.4,1.5-1.3c0.8,0,1.4,0.7,1.3,1.5c-0.1,0.8-0.7,1.3-1.5,1.3
				C443.6,169.1,443,168.5,443.1,167.7z"/>
			<path class="st6" d="M440.3,167.5c0.1-0.8,0.7-1.3,1.5-1.3c0.8,0.1,1.3,0.7,1.3,1.5c-0.1,0.7-0.7,1.3-1.5,1.3
				C440.9,168.9,440.3,168.3,440.3,167.5z"/>
		</g>
		<path class="st6" d="M446.7,224.5l6.8,15.5c1.2,2.7,1.6,5.7,1.2,8.7L443.3,337l-19.1-1.1l5.5-92.4l-3.2-20.7L446.7,224.5z"/>
		<path class="st8" d="M411.9,470.1c-0.2,2.7-2.5,4.8-5.3,4.6h-0.1c-2.7-0.2-4.7-2.4-4.7-5.1l3.7-139.9l15.8,0.9L411.9,470.1z"/>
		<path class="st9" d="M414.4,220.3l19.4-12.8l32,1.8l-3.5,9.1c-1.7,4.5-4.8,8.3-8.9,11l-26.4,17.4l-5.7,83.8l-15.8-0.9l2.6-98.1
			C408.3,227,410.6,222.8,414.4,220.3z"/>
		<g>
			<path class="st6" d="M465.8,209.2l-32-1.8l0.6-11.5L470,198l-0.2,3.6C469.6,204.8,468.1,207.6,465.8,209.2z"/>
			<path class="st6" d="M467.2,197.8c0-0.8,0.7-1.4,1.5-1.3c0.8,0,1.3,0.7,1.3,1.5c0,0.8-0.7,1.4-1.5,1.3
				C467.8,199.3,467.2,198.6,467.2,197.8z"/>
			<path class="st6" d="M464.4,197.7c0-0.7,0.7-1.3,1.5-1.3c0.8,0,1.3,0.7,1.3,1.4c0,0.8-0.7,1.4-1.4,1.3
				C465,199.1,464.4,198.4,464.4,197.7z"/>
			<path class="st6" d="M461.7,197.5c0-0.7,0.7-1.3,1.4-1.3c0.8,0.1,1.4,0.7,1.3,1.4c0,0.8-0.7,1.4-1.5,1.3
				C462.2,198.9,461.6,198.3,461.7,197.5z"/>
			<path class="st6" d="M458.9,197.4c0-0.8,0.7-1.4,1.5-1.4c0.8,0.1,1.3,0.8,1.3,1.5c-0.1,0.8-0.7,1.4-1.5,1.3
				C459.5,198.8,458.9,198.1,458.9,197.4z"/>
			<path class="st6" d="M456.2,197.2c0.1-0.8,0.7-1.3,1.5-1.3c0.8,0,1.3,0.7,1.3,1.4c-0.1,0.8-0.7,1.3-1.4,1.3
				C456.7,198.6,456.1,197.9,456.2,197.2z"/>
			<path class="st6" d="M453.4,197c0.1-0.8,0.7-1.4,1.5-1.3c0.8,0,1.3,0.7,1.3,1.5c0,0.7-0.7,1.3-1.5,1.3
				C453.9,198.4,453.4,197.8,453.4,197z"/>
			<path class="st6" d="M450.7,196.9c0.1-0.8,0.7-1.4,1.5-1.3c0.8,0,1.3,0.7,1.3,1.5c0,0.7-0.7,1.3-1.5,1.3
				C451.2,198.3,450.6,197.6,450.7,196.9z"/>
			<path class="st6" d="M447.9,196.7c0.1-0.8,0.7-1.3,1.4-1.3c0.8,0,1.4,0.7,1.3,1.5c0,0.7-0.7,1.3-1.5,1.3
				C448.4,198.1,447.9,197.4,447.9,196.7z"/>
			<path class="st6" d="M445.1,196.5c0-0.8,0.7-1.3,1.5-1.3c0.8,0,1.4,0.7,1.3,1.5c0,0.7-0.7,1.3-1.5,1.3
				C445.7,198,445.1,197.3,445.1,196.5z"/>
			<path class="st6" d="M442.4,196.4c0-0.8,0.7-1.4,1.5-1.3c0.8,0,1.3,0.7,1.3,1.4c-0.1,0.7-0.7,1.4-1.5,1.3
				C442.9,197.8,442.4,197.1,442.4,196.4z"/>
			<path class="st6" d="M439.6,196.2c0-0.8,0.7-1.4,1.4-1.3c0.8,0,1.3,0.7,1.3,1.5c0,0.7-0.7,1.3-1.5,1.3
				C440.2,197.6,439.6,197,439.6,196.2z"/>
			<path class="st6" d="M436.8,196c0.1-0.7,0.7-1.3,1.5-1.3c0.7,0,1.3,0.7,1.3,1.5c-0.1,0.8-0.7,1.3-1.5,1.3
				C437.4,197.4,436.8,196.8,436.8,196z"/>
		</g>
		<path class="st10" d="M454.4,213.8c-0.1,1.3,1,2.5,2.3,2.6c1.4,0.1,2.5-1,2.6-2.4c0.1-1.4-1-2.5-2.3-2.6
			C455.7,211.4,454.5,212.4,454.4,213.8z"/>
		<path class="st10" d="M437.4,212.8c-0.1,1.4,1,2.5,2.3,2.6c1.4,0.1,2.5-1,2.6-2.3c0.1-1.4-1-2.5-2.3-2.6
			C438.6,210.4,437.4,211.4,437.4,212.8z"/>
		<path class="st10" d="M427.4,225.4c-0.2,2.9,2.1,5.5,5,5.6c2.9,0.2,5.5-2.1,5.6-5c0.2-2.9-2.1-5.4-5-5.6
			C430.1,220.2,427.6,222.5,427.4,225.4z"/>
		<g>
			<path class="st6" d="M419.5,469.3c-0.2,3.4,2.4,6.3,5.8,6.5l0,0c3.4,0.2,6.3-2.4,6.5-5.8l7.5-127c0.2-3.4-2.4-6.3-5.8-6.5l0,0
				c-3.4-0.2-6.3,2.4-6.5,5.8L419.5,469.3z"/>
			<path class="st9" d="M426.1,346.8c0,0.6,0.4,1.1,1,1.2l11.3,1.9c0.6,0.1,1.1-0.3,1.1-0.9l0,0c0-0.6-0.4-1.1-1-1.2l-11.3-1.9
				C426.6,345.8,426.1,346.2,426.1,346.8L426.1,346.8z"/>
			<path class="st9" d="M425.9,350.2c0,0.5,0.4,1.1,1,1.2l11.3,1.9c0.6,0.1,1.1-0.3,1.1-0.9l0,0c0-0.6-0.4-1.1-1-1.2l-11.3-1.9
				C426.4,349.2,425.9,349.6,425.9,350.2L425.9,350.2z"/>
			<path class="st9" d="M425.7,353.6c0,0.6,0.4,1.1,1,1.2l11.3,1.9c0.6,0.1,1.1-0.3,1.1-0.9l0,0c0-0.6-0.4-1.2-1-1.2l-11.3-1.9
				C426.2,352.6,425.7,353,425.7,353.6L425.7,353.6z"/>
			<path class="st9" d="M425.5,356.9c0,0.6,0.4,1.2,1,1.3l11.3,1.9c0.6,0.1,1.1-0.3,1.1-0.9l0,0c0.1-0.6-0.4-1.2-1-1.3l-11.3-1.9
				C426,356,425.5,356.3,425.5,356.9L425.5,356.9z"/>
			<path class="st9" d="M425.3,360.3c-0.1,0.6,0.4,1.1,1,1.2l11.3,2c0.6,0.1,1.1-0.3,1.1-0.9l0,0c0-0.6-0.4-1.1-1-1.2l-11.3-2
				C425.8,359.3,425.3,359.8,425.3,360.3L425.3,360.3z"/>
			<path class="st9" d="M425.1,363.7c0,0.6,0.4,1.1,1,1.2l11.3,2c0.6,0.1,1.1-0.3,1.1-0.9l0,0c0-0.6-0.4-1.2-1-1.3l-11.3-1.9
				C425.6,362.8,425.1,363.2,425.1,363.7L425.1,363.7z"/>
			<path class="st9" d="M424.9,367.1c0,0.5,0.4,1.1,1,1.2l11.3,1.9c0.6,0.1,1.1-0.3,1.1-0.9l0,0c0.1-0.6-0.4-1.2-1-1.2l-11.3-2
				C425.4,366.2,424.9,366.5,424.9,367.1L424.9,367.1z"/>
			<path class="st9" d="M424.7,370.5c0,0.6,0.4,1.2,1,1.2l11.3,2c0.6,0.1,1.1-0.3,1.1-0.9l0,0c0-0.6-0.4-1.1-1-1.2l-11.3-1.9
				C425.2,369.6,424.7,369.9,424.7,370.5L424.7,370.5z"/>
			<path class="st9" d="M424.5,373.9c0,0.6,0.4,1.2,1,1.3l11.3,1.9c0.6,0.1,1.1-0.3,1.1-0.9l0,0c0-0.6-0.4-1.1-1-1.2l-11.3-1.9
				C425,372.9,424.5,373.3,424.5,373.9L424.5,373.9z"/>
			<path class="st9" d="M424.3,377.3c0,0.6,0.4,1.2,1,1.2l11.3,2c0.6,0.1,1.1-0.3,1.1-0.9l0,0c0.1-0.6-0.4-1.1-1-1.2l-11.3-2
				C424.8,376.3,424.3,376.7,424.3,377.3L424.3,377.3z"/>
			<path class="st9" d="M424.1,380.7c0,0.6,0.4,1.2,1,1.3l11.3,1.9c0.6,0.1,1.1-0.3,1.1-0.9l0,0c0-0.6-0.4-1.2-1-1.3l-11.3-1.9
				C424.6,379.7,424.1,380.1,424.1,380.7L424.1,380.7z"/>
			<path class="st9" d="M423.9,384.1c0,0.6,0.4,1.2,1,1.2l11.3,1.9c0.6,0.1,1.1-0.3,1.1-0.8l0,0c0-0.6-0.4-1.1-1-1.3l-11.3-2
				C424.4,383.1,423.9,383.5,423.9,384.1L423.9,384.1z"/>
			<path class="st9" d="M423.7,387.4c0,0.6,0.4,1.2,1,1.3l11.3,1.9c0.6,0.1,1.1-0.3,1.1-0.9l0,0c0.1-0.6-0.4-1.2-1-1.3l-11.3-1.9
				C424.2,386.5,423.7,386.9,423.7,387.4L423.7,387.4z"/>
			<path class="st9" d="M423.5,390.9c0,0.5,0.4,1.1,1,1.2l11.3,1.9c0.6,0.1,1-0.3,1.1-0.9l0,0c0-0.6-0.4-1.1-1-1.2l-11.3-2
				C424,389.9,423.5,390.3,423.5,390.9L423.5,390.9z"/>
			<path class="st9" d="M423.3,394.2c-0.1,0.6,0.4,1.1,1,1.3l11.3,1.9c0.5,0.1,1.1-0.3,1.1-0.9l0,0c0-0.6-0.4-1.1-1-1.2l-11.3-2
				C423.8,393.2,423.3,393.6,423.3,394.2L423.3,394.2z"/>
			<path class="st9" d="M423.1,397.6c0,0.6,0.4,1.1,1,1.2l11.3,2c0.6,0.1,1.1-0.3,1.1-0.9l0,0c0.1-0.6-0.4-1.1-1-1.3l-11.3-1.9
				C423.6,396.6,423.1,397,423.1,397.6L423.1,397.6z"/>
			<path class="st9" d="M422.9,401c0,0.6,0.4,1.2,1,1.2l11.3,1.9c0.6,0.1,1.1-0.3,1.1-0.9l0,0c0-0.6-0.4-1.1-1-1.2l-11.3-1.9
				C423.4,400,423,400.4,422.9,401L422.9,401z"/>
			<path class="st9" d="M422.7,404.4c0,0.6,0.4,1.2,1,1.3l11.3,1.9c0.6,0.1,1.1-0.3,1.1-0.9l0,0c0-0.6-0.4-1.2-1-1.3l-11.3-1.9
				C423.2,403.4,422.7,403.8,422.7,404.4L422.7,404.4z"/>
			<path class="st9" d="M422.5,407.8c0,0.6,0.4,1.2,1,1.2l11.3,2c0.6,0.1,1.1-0.3,1.1-0.9l0,0c0-0.6-0.4-1.1-1-1.2l-11.3-2
				C423,406.8,422.5,407.2,422.5,407.8L422.5,407.8z"/>
		</g>
		<g>
			<path class="st11" d="M423.2,346.3l19.9,1.2c0.7,0,1.2-0.5,1.2-1.1l0.5-8.1c0.1-0.6-0.5-1.2-1.1-1.2l-19.9-1.2
				c-0.6,0-1.2,0.4-1.2,1.1l-0.5,8.1C422.1,345.7,422.6,346.2,423.2,346.3z"/>
			<g>
				<path class="st10" d="M442.3,345.8c-0.1,0.4,0.2,0.7,0.6,0.7l0,0c0.4,0,0.7-0.2,0.7-0.6l0.4-7.2c0-0.4-0.3-0.7-0.6-0.7l0,0
					c-0.4,0-0.7,0.3-0.7,0.6L442.3,345.8z"/>
				<path class="st10" d="M440.3,345.6c0,0.4,0.3,0.7,0.6,0.8l0,0c0.4,0,0.7-0.3,0.7-0.7l0.4-7.2c0-0.4-0.2-0.7-0.6-0.7l0,0
					c-0.4,0-0.7,0.3-0.7,0.7L440.3,345.6z"/>
				<path class="st10" d="M438.4,345.6c0,0.4,0.3,0.7,0.6,0.7l0,0c0.3,0,0.7-0.3,0.7-0.7l0.4-7.2c0-0.4-0.2-0.7-0.6-0.7l0,0
					c-0.4,0-0.7,0.3-0.7,0.7L438.4,345.6z"/>
				<path class="st10" d="M436.5,345.5c0,0.3,0.2,0.6,0.6,0.7l0,0c0.3,0,0.7-0.2,0.7-0.7l0.4-7.2c0-0.4-0.2-0.7-0.6-0.7l0,0
					c-0.3,0-0.7,0.3-0.7,0.7L436.5,345.5z"/>
				<path class="st10" d="M434.6,345.3c0,0.4,0.2,0.7,0.6,0.7l0,0c0.4,0,0.7-0.3,0.7-0.6l0.4-7.2c0-0.3-0.3-0.7-0.6-0.7l0,0
					c-0.4,0-0.7,0.2-0.7,0.6L434.6,345.3z"/>
				<path class="st10" d="M432.6,345.2c0,0.4,0.2,0.7,0.6,0.7l0,0c0.4,0,0.7-0.3,0.7-0.7l0.4-7.2c0-0.4-0.3-0.7-0.6-0.7l0,0
					c-0.4,0-0.7,0.3-0.7,0.7L432.6,345.2z"/>
				<path class="st10" d="M430.7,345.1c0,0.4,0.3,0.7,0.6,0.7l0,0c0.4,0,0.7-0.3,0.7-0.7l0.4-7.2c0-0.4-0.3-0.7-0.6-0.7l0,0
					c-0.4,0-0.7,0.3-0.7,0.7L430.7,345.1z"/>
				<path class="st10" d="M428.8,345c0,0.4,0.2,0.7,0.6,0.7l0,0c0.4,0,0.7-0.2,0.7-0.7l0.4-7.1c0-0.4-0.2-0.7-0.6-0.8l0,0
					c-0.4,0-0.7,0.3-0.7,0.7L428.8,345z"/>
				<path class="st10" d="M426.8,344.9c0,0.4,0.2,0.7,0.6,0.7l0,0c0.3,0,0.7-0.2,0.7-0.6l0.4-7.2c0-0.4-0.2-0.7-0.6-0.7l0,0
					c-0.3,0-0.7,0.3-0.7,0.7L426.8,344.9z"/>
				<path class="st10" d="M424.9,344.8c0,0.4,0.2,0.7,0.6,0.7l0,0c0.4,0,0.7-0.3,0.7-0.7l0.4-7.2c0-0.4-0.3-0.7-0.6-0.7l0,0
					c-0.3,0-0.7,0.3-0.7,0.7L424.9,344.8z"/>
				<path class="st10" d="M423,344.6c0,0.4,0.2,0.7,0.6,0.7l0,0c0.4,0,0.7-0.3,0.7-0.6l0.4-7.2c0-0.4-0.2-0.7-0.6-0.7l0,0
					c-0.4,0-0.7,0.3-0.7,0.7L423,344.6z"/>
			</g>
		</g>
	</g>
	<path class="st3" d="M176,269.2c24.5,4.2,39.8-3.8,39.8-3.8l-12.8-107.8c-6.9,1-46-0.3-75.2-1.7l-0.4,72.2l-0.1,10
		c-0.3,0.3-0.6,0.6-0.8,1.1C121.4,246.1,157.7,266.2,176,269.2z"/>
	<path class="st12" d="M286.9,543.7H82.8c-1.3-14.2-2.4-28.4-3.2-42.4c-4.5-71.5-3.3-140,11.2-192.9c4-14.7,11.6-28.2,17.7-40.2
		h105.5c14.2,15.7,47.1,50.7,61.9,91.4c6.2,16.8,9.9,34.5,9.4,52.3c0,1.3,4.9,21,5.1,60.9C290.8,491.8,289.8,515.3,286.9,543.7z"/>
	<g>
		<path class="st13" d="M258.3,165.5l-7.4,3.1c0.6,5.4,6.3,35,6.3,35c1.3,13.6-3.9,32.8-20.3,34.5l-17.3,1.5
			c-21.2,0.3-55.8-20.5-58.9-56c-12.8,0.2-32.4,16.4-35.2,3.8c-3.1-13.5-20.5-31.7-24.3-49.5c-7.6-80.4,42.5-82.1,72.2-85.9
			c31.2-2.6,63.1,12.6,75.7,53.8c1.5,4.9,2.7,10,3.6,15.7c-1.1,5.4-2.7,10-2.7,10l2.4,4l10.6,17.6
			C265.5,157.8,263.3,163.6,258.3,165.5z"/>
		<path class="st14" d="M129.5,205.7c55.6,4.9,17.3-53.1,17.3-53.1s14.6,18,19.7,22.8c8.8-1.2,8.8-1.2,16.6-2.9
			c-5.5-68.5-22.6-97.3,54.5-91c-14.2-28.3-50.6-47.2-73.4-38.1C126.8,58.6,92.2,75.6,93.7,116C94.6,139.5,94,152.8,129.5,205.7z"/>
		<path class="st13" d="M138.4,159.1c1.7,12.5,14.1,25.7,22.3,24.6c8.2-1.1,6-11.1,4.5-23.7c-1-8.3-0.4-20.3-9.8-21.8
			C147.2,136.9,136,140.7,138.4,159.1z"/>
	</g>
	<path class="st15" d="M276,359.6c-7.5,1.9-15,3.9-22.5,5.9c-13.8-22.7-29.6-50.2-48.7-68.6c-22.5-21.6-47.4-28.7-73.2-22.6
		c-16.8,3.9-31.1,13.8-40.7,34c6.3-23.4,15.2-43.6,27.4-59.7c2.6-3.4,8.8-10.4,9-10.7c26.1,17.7,75.5,31.1,88.5,27.4
		C215.8,265.4,255.8,304,276,359.6z"/>
	<path class="st12" d="M245.3,95.4l-59.1,17.6c-0.1,0-0.1,0-0.1,0l-58.1,17.3l-1.9,0.6l-2.4,0.8L95.9,140l-4.7-29.9
		c-2.7-23.3,13-49.2,34.8-58l34.7-14.2c30.6-12.4,63.1,5.5,76.1,35.8c0.4,0.9,0.8,1.8,1.2,2.8l2.7,7.2L245.3,95.4z"/>
	<path class="st16" d="M122,65.1c-13.8,9.6-23.2,27.8-21.4,43.6l3,19.1l92.2-27.5C163.5,98.7,130.7,91.9,122,65.1z"/>
	<path class="st17" d="M229.6,81l-0.4-1l-1-2.5c-8.7-20.3-27.7-34-47.2-34c-5.6,0-11.2,1.1-16.6,3.3L142,55.8
		c31-3.5,58.6,8.4,78.6,29.2C223.7,83.6,226.6,82.3,229.6,81z"/>
	<path class="st18" d="M305.2,77.9c-4.5,12.2-14.5,18.5-29.3,22.7c-9.3,2.7-20.6,4.4-33.7,6.4c-13.8,2-54,5.9-56,6.1
		c16.4-12.3,32.7-22.2,54.6-29.4c0,0,13.8-1.7,28.6-3.2C286.5,78.5,305,76.8,305.2,77.9z"/>
	<path class="st16" d="M250,131.6l2.4,4c-42.4,4.7-85.8-2.2-128.6-3.8l2.4-0.8h1.7c0.1-0.2,0.1-0.4,0.2-0.6l58.1-17.3c0,0,0,0,0.1,0
		c2-0.2,42.2-4.1,56-6.1c2.3-0.4,4.6-0.7,6.9-1.1c1.5,4.9,2.7,10,3.6,15.7C251.6,127,250,131.6,250,131.6z"/>
	<path class="st19" d="M104.5,131.3l21.8-0.4l-2.4,0.8C117.3,131.4,110.9,131.3,104.5,131.3z"/>
	<path class="st20" d="M371.5,408.2l17.5-59.9c28.5,2.1,32.5-24.1,32.5-24.1l3.1-0.7c1.5-0.3,3.1,0.1,4.3,1.1l7.3,5.9
		c2.6,2.1,5.8,3,9.1,2.7c3.2-0.4,6.2-2,8.3-4.6l1.2-1.5c2-2.5,1.6-6.2-0.9-8.2l-7.9-6.4l-11.7-9.5c-1.2-1.1-2.8-1.5-4.4-1.5h0
		c-1.1,0.2-24.7,4.7-26.5,5.3c-7,2.1-12.7,7.2-15.9,13.9l-1.6,4l-33,14.7L371.5,408.2z"/>
	<path class="st20" d="M438.6,325.1c-5,0.3-9.3-3.6-9.6-8.6l-0.1-1.6c-0.1-2.4,0.7-4.8,2.3-6.6c1.6-1.8,3.9-2.9,6.3-3l18.4-0.9
		c4.7-0.3,8.7,3.3,8.9,8l0.2,3.4c0.2,4.4-3.1,8.1-7.5,8.4L438.6,325.1z"/>
	<path class="st20" d="M434.9,345.2c-2.4,0.2-4.8-0.7-6.6-2.3c-1.8-1.6-2.9-3.9-3-6.4l-0.1-1.6c-0.3-5,3.5-9.2,8.5-9.6l23.2-1.6
		c2.3-0.1,4.5,0.6,6.2,2.1c1.7,1.5,2.7,3.7,2.9,5.9l0.2,3.4c0.2,4.3-3.1,8-7.4,8.3L434.9,345.2z"/>
	<path class="st20" d="M438.1,364.1c-5.1,0.3-9.3-3.6-9.6-8.6l-0.1-1.7c-0.2-2.4,0.7-4.8,2.3-6.6c1.6-1.8,3.9-2.9,6.3-3l18.4-1
		c4.7-0.3,8.7,3.4,8.9,8.1l0.2,3.4c0.1,2.1-0.6,4.1-2,5.7c-1.4,1.6-3.4,2.5-5.5,2.6L438.1,364.1z"/>
	<path class="st20" d="M436.7,380.5c-3.8,0.2-7.1-3-7.4-7.2l0-1.4c-0.2-4.2,2.7-7.7,6.6-7.9l14.1-0.7c3.6-0.2,6.7,2.8,6.9,6.7
		l0.1,2.8c0.2,3.6-2.4,6.7-5.8,6.9L436.7,380.5z"/>
	<polygon class="st1" points="443.6,195.3 437,181.8 445.4,169.2 460.4,170.3 467.1,183.8 458.6,196.3 	"/>
	<path class="st21" d="M458.8,182.8c0,3.8-3.1,6.9-6.9,6.9c-3.8,0-6.9-3.1-6.9-6.9c0-3.8,3.1-6.9,6.9-6.9
		C455.7,175.9,458.8,179,458.8,182.8z"/>
	<path class="st16" d="M286.9,543.7H82.8c-1.3-14.2-2.4-28.4-3.2-42.4c21.4-4.6,59.6-36.7,21.9-147.9c-6.1-18,92.2-23.7,92.2-23.7
		c37.5,50.5,52.6,124,89.3,125.7l7.5,17.5C290.8,491.8,289.8,515.3,286.9,543.7z"/>
	<path class="st13" d="M234.5,442c-71.6,21.3-32.2,114.2,33.8,78.8L369.8,462L356.3,400L234.5,442z"/>
	<polygon class="st13" points="169.1,458.2 207.5,514.7 268.3,446.9 245.4,411 	"/>
	<path class="st15" d="M190.8,325c-35.8-56.5-119.5-19.4-78,49.4l56.3,83.8l76.3-47.2L190.8,325z"/>
	<polygon class="st20" points="415.2,387.8 339.1,400.9 354.5,470.6 426.5,437.3 	"/>
	<g>
		<path class="st20" d="M374.7,448.1c1.5,7.5,11.7,11.3,23.4,11l38.4-1.1c0.7,0,1.3-0.5,1.5-1.1c7.2-21.8,7.3-42.8,5.8-67
			c0-0.4-0.2-0.7-0.4-1l-6.2-6.6c-0.3-0.3-0.7-0.5-1.2-0.5c-5.7,0.2-43.9,1-45.7,1.5c-7.1,2-12.9,7.1-16.3,13.8
			c0,0.1-0.1,0.1-0.1,0.2C373.9,397.2,374.5,447.4,374.7,448.1z"/>
		<path class="st5" d="M434.8,402.1c-6,0.2-11-4.4-11.3-10.4v-0.1c-0.1-2.5,0.8-4.8,2.4-6.6c1.7-1.8,4-2.9,6.5-3l17.1-0.7
			c5.6-0.2,10.4,4.2,10.7,9.8v0.3c0.2,5.3-3.9,9.8-9.2,10L434.8,402.1z"/>
		<path class="st5" d="M431.5,422.4c-2.5,0.1-4.9-0.7-6.8-2.4c-1.8-1.7-2.9-4-3-6.5v-0.1c-0.2-5.9,4.3-11,10.2-11.3l22-1.3
			c2.3-0.1,4.5,0.7,6.3,2.3c1.7,1.5,2.7,3.7,2.8,6l0.1,1.9c0.2,5.3-3.9,9.8-9.1,10L431.5,422.4z"/>
		<path class="st5" d="M431.8,442c-6,0.3-11-4.4-11.3-10.4v-0.1c-0.1-2.5,0.8-4.8,2.4-6.7c1.7-1.8,4-2.9,6.4-3l17.1-0.7
			c5.6-0.2,10.4,4.1,10.7,9.8l0.1,1.9c0.1,2.1-0.7,4.2-2.1,5.8c-1.4,1.6-3.5,2.5-5.6,2.6L431.8,442z"/>
		<path class="st5" d="M431.6,458.2c-3.9,0.2-7.2-3.1-7.4-7.4l0-1.4c-0.2-4.2,2.9-7.8,6.8-7.9l14.3-0.6c3.7-0.1,6.8,2.9,7,6.9
			l0.1,2.9c0.1,3.7-2.5,6.8-5.9,6.9L431.6,458.2z"/>
		<path class="st20" d="M418.4,458.5l18.1-0.5c4.6-0.3,7.7-4.6,7.4-9.4v-0.2c-0.3-4.7-4.3-8.3-8.9-8.1l3.1-0.2
			c5.2-0.3,9.2-4.9,8.9-10.3l0-0.2c-0.3-5.3-4.8-9.4-10-9l2.8-0.2c5.2-0.3,9.2-5,8.9-10.3v-0.2c-0.3-5.4-4.8-9.4-10.1-9
			c5.2-0.3,9.2-4.9,8.9-10.3v-0.2c-0.3-5.3-4.8-9.4-10.1-9l-22.8,1.5L418.4,458.5z"/>
	</g>
</g>
</svg>
