<?xml version="1.0" encoding="utf-8"?>
<!-- Generator: Adobe Illustrator 24.0.0, SVG Export Plug-In . SVG Version: 6.00 Build 0)  -->
<svg version="1.1" id="Layer_1" xmlns="http://www.w3.org/2000/svg" xmlns:xlink="http://www.w3.org/1999/xlink" x="0px" y="0px"
	 viewBox="0 0 576 576" style="enable-background:new 0 0 576 576;" xml:space="preserve">
<style type="text/css">
	.st0{fill:#D0D1D1;}
	.st1{fill:#575858;}
	.st2{opacity:0.15;fill:#070707;}
	.st3{fill:#FFFFFF;}
	.st4{fill:#C7C6C5;}
	.st5{fill:#A41E22;}
	.st6{opacity:0.75;fill:#FFFFFF;}
</style>
<g>
	<path class="st0" d="M143.9,74l224.3,202.1l0.2-0.2c8.3-9.2,2.2-29.1-2.8-33.6L174.2,71.5c-5-4.5-21.9-6.8-30.2,2.4L143.9,74z"/>
	<polygon class="st1" points="237.2,469.2 530.4,531.4 547.3,450.5 254.2,388.4 	"/>
	<polygon class="st2" points="249.6,461.1 249.6,461.1 530.4,479.8 522.2,518.9 	"/>
	<polygon class="st0" points="367.3,543.8 156.6,543.8 128.8,278.5 422.5,277.4 	"/>
	<path class="st3" d="M166.1,533.3l-2-18.9c123.8-4.5,161.9-37.1,228.2-148.7l-33.6,167.6H166.1z"/>
	<path class="st4" d="M367.3,290.2c0.1,1.7,0.3,3.5,0.3,5.2c0,75.7-65.5,137.1-146.4,137.1c-80.9,0-146.4-61.4-146.4-137.1
		c0-1.7,0.2-3.5,0.3-5.2H367.3z"/>
	<path class="st3" d="M85.4,300.7c3,67.2,62.5,121,135.3,121.2c-53-20.1-91.9-50.6-104.7-121.2H85.4z"/>
	<rect x="66.2" y="268.4" class="st0" width="301.9" height="36.4"/>
	<path class="st5" d="M66.2,268.4h301.9v-0.1c0-6.8-5.5-12.2-12.2-12.2H78.3c-6.7,0-12.2,5.4-12.2,12.2V268.4z"/>
	<path class="st0" d="M382.2,36.2h113.7c8.3,0,15,6.7,15,15v14.7H367.3V51.2C367.3,42.8,374,36.2,382.2,36.2z"/>
	<path class="st6" d="M419.6,46.7h-37.4c-2.4,0-4.5,2-4.5,4.5v4.3L419.6,46.7z"/>
	<path class="st0" d="M510.9,268.1V65.9H367.3v202.2v37.5h117.5c14.4,0,26.1-11.7,26.1-26.1V268.1L510.9,268.1z"/>
	<path class="st3" d="M377.8,76.4v218.7c0,0,11.5-171.8,58.3-218.7H377.8z"/>
</g>
</svg>
