<?xml version="1.0" encoding="utf-8"?>
<!-- Generator: Adobe Illustrator 24.0.0, SVG Export Plug-In . SVG Version: 6.00 Build 0)  -->
<svg version="1.1" id="Layer_1" xmlns="http://www.w3.org/2000/svg" xmlns:xlink="http://www.w3.org/1999/xlink" x="0px" y="0px"
	 viewBox="0 0 576 576" style="enable-background:new 0 0 576 576;" xml:space="preserve">
<style type="text/css">
	.st0{fill:#484847;}
	.st1{fill:#DFDFDE;}
	.st2{fill:#272726;}
	.st3{fill:#908F8F;}
	.st4{fill:#6B6969;}
	.st5{opacity:0.3;fill:#FFFFFF;}
</style>
<g>
	<g>
		<g>
			<g>
				<path class="st0" d="M517.5,291.7c0,113.1-91.6,204.7-204.7,204.7c-113.1,0-204.7-91.6-204.7-204.7S199.7,87,312.8,87
					C425.8,87,517.5,178.6,517.5,291.7z"/>
				<path class="st0" d="M480.3,267.9c-10.5-74.4-69.3-133.2-143.7-143.8v-17.4h-47.8v17.4c-74.3,10.5-133.2,69.4-143.7,143.8h-17.4
					v47.8h17.4c10.5,74.4,69.4,133.2,143.7,143.7v17.3h47.8v-17.3C411,448.8,469.9,390,480.3,315.6h17.3v-47.8H480.3z"/>
			</g>
			<g>
				<path class="st1" d="M517.5,291.7c0,113.1-91.6,204.7-204.7,204.7c-113.1,0-204.7-91.6-204.7-204.7S199.7,87,312.8,87
					C425.8,87,517.5,178.6,517.5,291.7z"/>
				<path class="st0" d="M480.3,267.9c-10.5-74.4-69.3-133.2-143.7-143.8v-17.4h-47.8v17.4c-74.3,10.5-133.2,69.4-143.7,143.8h-17.4
					v47.8h17.4c10.5,74.4,69.4,133.2,143.7,143.7v17.3h47.8v-17.3C411,448.8,469.9,390,480.3,315.6h17.3v-47.8H480.3z"/>
			</g>
		</g>
		<path class="st2" d="M469.1,291.7c0,7.5-0.5,14.9-1.5,22.1c-9.7,68.7-64.1,123.1-132.8,132.8c-7.2,1-14.6,1.5-22.1,1.5
			c-7.5,0-14.9-0.5-22.1-1.5c-68.7-9.7-123.1-64.1-132.7-132.8c-1-7.2-1.5-14.6-1.5-22.1c0-7.5,0.5-14.8,1.5-22
			c9.7-68.7,64-123,132.7-132.8c7.2-1,14.6-1.5,22.1-1.5c7.5,0,14.9,0.6,22.1,1.5c68.7,9.8,123.1,64.1,132.8,132.8
			C468.6,276.9,469.1,284.2,469.1,291.7z"/>
		<g>
			<g>
				<polygon class="st3" points="441.6,275.4 75.5,328.4 68.7,281.1 434.8,228.2 				"/>
				<polygon class="st3" points="305.3,457.8 258,464.7 205.1,98.6 252.3,91.7 				"/>
			</g>
			<path class="st3" d="M421.9,253.8c13.4,92.1-50.6,177.5-142.7,190.9C187.2,458.1,101.7,394.2,88.3,302
				C75,209.9,138.9,124.4,231,111.1C323.1,97.8,408.6,161.6,421.9,253.8z"/>
			<path class="st0" d="M396.4,257.5c11.3,78-42.8,150.5-120.8,161.7c-78,11.3-150.4-42.8-161.7-120.9
				c-11.3-78,42.9-150.4,120.9-161.7C312.8,125.3,385.1,179.5,396.4,257.5z"/>
			<g>
				<polygon class="st4" points="142.5,331.1 160.1,328.5 157.6,310.8 139.9,313.4 				"/>
				<polygon class="st4" points="192.8,361.4 175.1,363.9 177.6,381.6 195.3,379.1 				"/>
				
					<rect x="137.2" y="284.7" transform="matrix(0.9897 -0.1434 0.1434 0.9897 -40.5945 23.9815)" class="st4" width="17.9" height="17.9"/>
				<polygon class="st4" points="149.7,256.3 132,258.9 134.6,276.6 152.3,274 				"/>
				<polygon class="st4" points="169.1,197.8 151.4,200.4 154,218.1 171.6,215.5 				"/>
				<polygon class="st4" points="180.9,279.6 163.2,282.2 165.8,299.9 183.5,297.3 				"/>
				<polygon class="st4" points="184.9,306.9 167.2,309.4 169.7,327.1 187.5,324.6 				"/>
				<polygon class="st4" points="177,252.3 159.3,254.9 161.9,272.6 179.5,270.1 				"/>
				<polygon class="st4" points="173.1,225.1 155.4,227.7 157.9,245.4 175.6,242.8 				"/>
				<polygon class="st4" points="188.8,334.1 171.1,336.7 173.7,354.4 191.4,351.8 				"/>
				<path class="st4" d="M224,384.7l-17.7,2.5l1.9,13.4c3,1.2,6.1,2.1,9.1,3.1l9.2-1.3L224,384.7z"/>
				
					<rect x="258" y="350.8" transform="matrix(0.9897 -0.1434 0.1434 0.9897 -48.8086 41.9889)" class="st4" width="17.9" height="17.9"/>
				<polygon class="st4" points="270.6,322.3 252.9,324.8 255.4,342.6 273.1,340 				"/>
				<path class="st4" d="M148.4,246.7l-2.6-17.7l-13.4,2c-1.1,3-2.1,6-3,9.1l1.3,9.1L148.4,246.7z"/>
				<polygon class="st4" points="266.6,295 249,297.6 251.5,315.3 269.2,312.7 				"/>
				<path class="st4" d="M164.1,355.7l-2.6-17.7l-17.7,2.5l1.4,9.2c1.7,2.7,3.5,5.4,5.5,7.9L164.1,355.7z"/>
				<polygon class="st4" points="196.4,193.9 178.7,196.5 181.2,214.2 198.9,211.6 				"/>
				<polygon class="st4" points="247.3,353.5 229.6,356.1 232.1,373.8 249.8,371.2 				"/>
				<path class="st4" d="M195,184.3l-2.6-17.7l-9.2,1.3c-2.7,1.8-5.3,3.5-7.9,5.5l1.9,13.4L195,184.3z"/>
				<polygon class="st4" points="235.4,271.7 217.7,274.3 220.3,292 238,289.4 				"/>
				
					<rect x="226.8" y="327.4" transform="matrix(0.9897 -0.1433 0.1433 0.9897 -45.7783 37.2645)" class="st4" width="17.9" height="17.9"/>
				<polygon class="st4" points="239.4,299 221.7,301.6 224.3,319.2 242,316.7 				"/>
				<path class="st4" d="M315.3,371.5l2.6,17.7l9.2-1.3c2.7-1.8,5.4-3.6,7.9-5.5l-2-13.4L315.3,371.5z"/>
				<polygon class="st4" points="236.1,401 253.8,398.4 251.2,380.7 233.5,383.3 				"/>
				<polygon class="st4" points="208.2,275.7 190.5,278.2 193.1,295.9 210.7,293.4 				"/>
				<polygon class="st4" points="212.1,302.9 194.4,305.5 197,323.2 214.7,320.6 				"/>
				<polygon class="st4" points="200.3,221.1 182.6,223.7 185.2,241.4 202.9,238.8 				"/>
				<polygon class="st4" points="204.9,377.7 222.5,375.1 220,357.4 202.3,360 				"/>
				<polygon class="st4" points="231.5,244.5 213.8,247 216.3,264.7 234.1,262.2 				"/>
				<polygon class="st4" points="204.3,248.4 186.6,251 189.1,268.7 206.8,266.1 				"/>
				<polygon class="st4" points="227.5,217.2 209.9,219.8 212.4,237.5 230.1,234.9 				"/>
				<polygon class="st4" points="223.6,189.9 205.9,192.5 208.5,210.2 226.2,207.7 				"/>
				<polygon class="st4" points="216,330.2 198.4,332.8 200.9,350.4 218.6,347.9 				"/>
				<polygon class="st4" points="219.7,162.7 202,165.3 204.5,183 222.2,180.4 				"/>
				<polygon class="st4" points="297.8,318.4 280.1,320.9 282.7,338.6 300.4,336 				"/>
				<polygon class="st4" points="321.2,287.1 303.5,289.7 306,307.4 323.7,304.8 				"/>
				<polygon class="st4" points="282,209.3 264.4,211.9 266.9,229.6 284.6,227 				"/>
				<polygon class="st4" points="289.9,263.9 272.3,266.4 274.8,284.1 292.5,281.6 				"/>
				<polygon class="st4" points="286,236.6 268.3,239.2 270.9,256.9 288.6,254.3 				"/>
				
					<rect x="277.4" y="292.3" transform="matrix(0.9897 -0.1433 0.1433 0.9897 -40.2168 44.1449)" class="st4" width="17.9" height="17.9"/>
				<polygon class="st4" points="313.3,232.7 295.6,235.2 298.1,252.9 315.8,250.3 				"/>
				<polygon class="st4" points="317.2,259.9 299.5,262.5 302.1,280.1 319.7,277.6 				"/>
				<polygon class="st4" points="309.3,205.4 291.6,208 294.2,225.6 311.9,223.1 				"/>
				<polygon class="st4" points="301.8,345.6 284.1,348.2 286.6,365.8 304.3,363.3 				"/>
				<polygon class="st4" points="305.4,178.2 287.7,180.7 290.3,198.4 307.9,195.8 				"/>
				<polygon class="st4" points="290.6,393.1 308.3,390.6 305.7,372.9 288,375.4 				"/>
				<path class="st4" d="M361.9,309.1l2.6,17.7l13.4-2c1.1-3,2.1-6,3-9.1l-1.3-9.2L361.9,309.1z"/>
				<polygon class="st4" points="274.2,154.8 256.5,157.4 259,175.1 276.7,172.5 				"/>
				<polygon class="st4" points="278.1,182.1 260.4,184.6 263,202.3 280.7,199.8 				"/>
				<polygon class="st4" points="262.7,267.8 245,270.4 247.5,288 265.2,285.5 				"/>
				<path class="st4" d="M365.1,206c-1.8-2.7-3.5-5.4-5.5-7.9l-13.4,1.9l2.5,17.7l17.7-2.6L365.1,206z"/>
				<polygon class="st4" points="278.5,376.8 260.8,379.4 263.3,397.1 281,394.5 				"/>
				<polygon class="st4" points="371.7,252 354,254.6 356.6,272.3 374.3,269.7 				"/>
				<polygon class="st4" points="367.8,224.8 350.1,227.3 352.6,245 370.3,242.5 				"/>
				<polygon class="st4" points="375.6,279.3 358,281.8 360.5,299.5 378.3,297 				"/>
				<polygon class="st4" points="254.8,213.3 237.1,215.8 239.7,233.5 257.4,231 				"/>
				<polygon class="st4" points="258.8,240.5 241.1,243.1 243.6,260.8 261.3,258.2 				"/>
				<polygon class="st4" points="246.9,158.8 229.3,161.3 231.8,179 249.5,176.4 				"/>
				
					<rect x="234.4" y="187.2" transform="matrix(0.9897 -0.1434 0.1434 0.9897 -25.6088 36.9063)" class="st4" width="17.9" height="17.9"/>
				<polygon class="st4" points="313.9,361.9 331.6,359.4 329,341.7 311.3,344.2 				"/>
				<polygon class="st4" points="317.5,194.5 335.2,191.9 332.7,174.2 314.9,176.7 				"/>
				<polygon class="st4" points="325.4,249 343.1,246.4 340.5,228.7 322.8,231.3 				"/>
				<path class="st4" d="M286.3,171.1l17.7-2.5l-1.9-13.4c-3-1.1-6.1-2.1-9.1-3l-9.2,1.3L286.3,171.1z"/>
				<polygon class="st4" points="325.1,314.4 307.4,317 310,334.7 327.6,332.1 				"/>
				<polygon class="st4" points="341.2,358 358.8,355.4 356.3,337.7 338.6,340.3 				"/>
				<polygon class="st4" points="337.2,330.7 354.9,328.2 352.4,310.5 334.7,313 				"/>
				<polygon class="st4" points="329.3,276.2 347,273.7 344.5,256 326.8,258.5 				"/>
				<polygon class="st4" points="336.6,201.4 318.9,204 321.4,221.7 339.1,219.1 				"/>
				<polygon class="st4" points="333.3,303.5 350.9,300.9 348.4,283.2 330.7,285.8 				"/>
			</g>
		</g>
	</g>
	<path class="st5" d="M145.4,309.5c-10.2-76.6,37.4-147.8,107.1-162.1c-8-0.6-16.3-0.2-24.7,1.1c-65.1,10.2-110.2,75.9-100.7,146.6
		c4.8,36.1,22.8,66.5,48,86.3C159.7,361.5,149,337,145.4,309.5z"/>
</g>
</svg>
