<?xml version="1.0" encoding="UTF-8"?>
<svg enable-background="new 0 0 576 576" version="1.1" viewBox="0 0 576 576" xml:space="preserve" xmlns="http://www.w3.org/2000/svg">
<style type="text/css">
	.st0{fill:#D0D1D1;}
	.st1{fill:#FFFFFF;}
	.st2{fill:#009ADE;}
	.st3{fill:#9C9C9B;}
	.st4{fill:#575858;}
	.st5{fill:#272726;}
	.st6{fill:#279DD8;}
	.st7{opacity:0.75;fill:#FFFFFF;enable-background:new    ;}
	.st8{opacity:0.1;fill:#070707;enable-background:new    ;}
	.st9{opacity:0.5;fill:#FFFFFF;enable-background:new    ;}
</style>

	
		<path class="st0" d="m457.8 184.1v70.9h-45.5c-31.4 0-56.9 25.5-56.9 56.9v1.9c0 68.1-54.1 123.8-121.6 126.4-1.6 0.1-3.3 0.1-5 0.1h-1.8c-1.7 0-3.3-0.1-5-0.1-67.5-2.6-121.6-58.4-121.6-126.4v-220.9h70.9v220.9c0 30.7 24.9 55.7 55.7 55.7h1.9c30.7 0 55.7-25 55.7-55.7v-1.9c0-70.5 57.3-127.8 127.7-127.8h45.5z"/>
		<path class="st1" d="m405.9 206.6v-12.2c-61.9 3.3-111.4 54.6-111.4 117.4v1.9c0 1.4-0.1 2.7-0.2 4.1h14.7c-0.8-58.9 40.7-104.3 96.9-111.2z"/>
		<path class="st2" d="m291.2 327.2c-6.2 28.8-31.8 50.4-62.5 50.4h-1.7c-30.6 0-56.2-21.6-62.4-50.4h-55.2c6.7 59 56.9 104.9 117.6 104.9h1.8c60.7 0 110.9-45.9 117.6-104.9h-55.2z"/>
		<rect class="st3" x="76.7" y="32.3" width="118.2" height="52.2"/>
		<polygon class="st4" points="194.9 84.5 76.7 84.5 92.6 109.7 179 109.7"/>
		<rect class="st5" x="96.8" y="109.7" width="78" height="15.4"/>
		
			<rect class="st3" x="455.8" y="160" width="52.2" height="118.3"/>
			<polygon class="st4" points="455.8 278.3 455.8 160 430.7 175.9 430.7 262.3"/>
			<rect class="st5" x="415.2" y="180.2" width="15.4" height="78"/>
		
		<path class="st6" d="m233.8 425.8v14.4c-1.6 0.1-3.3 0.1-5 0.1h-1.8c-1.7 0-3.3-0.1-5-0.1v-14.4h11.8z"/>
		<path class="st2" d="m381.5 521.1c0 12.5-60.1 22.6-134.2 22.6s-134.2-10.2-134.2-22.6c0-12.5 60.1-22.6 134.2-22.6 74.1-0.1 134.2 10 134.2 22.6z"/>
		<path class="st2" d="m350.6 488.9c0 7.4-35.7 13.4-79.7 13.4s-79.7-6-79.7-13.4 35.7-13.4 79.7-13.4c44-0.1 79.7 5.9 79.7 13.4z"/>
		<path class="st2" d="m231.6 466.2c0 4-22.7 7.3-50.7 7.3s-50.7-3.2-50.7-7.3c0-4 22.7-7.2 50.7-7.2s50.7 3.2 50.7 7.2z"/>
	
	<rect class="st1" x="109.4" y="134.3" width="20.9" height="181.5"/>
	<rect class="st7" x="84.8" y="38.4" width="18.9" height="38.1"/>
	<rect class="st1" x="462.8" y="170.7" width="38.1" height="18.9"/>
	<path class="st8" d="m326 327.2c-6.9 47.2-47.6 83.6-96.7 83.6h-1.5c-49.1 0-89.8-36.4-96.6-83.6h-21.8c6.7 59 56.9 104.9 117.6 104.9h1.8c60.7 0 110.9-45.9 117.6-104.9h-20.4z"/>
	<path class="st9" d="m356.5 511.9c-34 21.3-118 22.1-211 19.2 22 3.7 52.7 6.5 91.6 6.5 82.3 0 128.4-12.6 131.1-19.1-0.8-1.9-4.8-4.3-11.7-6.6z"/>

</svg>
