<?xml version="1.0" encoding="utf-8"?>
<!-- Generator: Adobe Illustrator 24.0.0, SVG Export Plug-In . SVG Version: 6.00 Build 0)  -->
<svg version="1.1" id="Layer_1" xmlns="http://www.w3.org/2000/svg" xmlns:xlink="http://www.w3.org/1999/xlink" x="0px" y="0px"
	 viewBox="0 0 576 576" style="enable-background:new 0 0 576 576;" xml:space="preserve">
<style type="text/css">
	.st0{fill:#B3B3B3;}
	.st1{fill:#272726;}
	.st2{fill:#A41E22;}
</style>
<g>
	<g>
		<polygon class="st0" points="185.8,294.8 206.4,308.1 204,311.7 183.5,298.5 		"/>
		<polygon class="st0" points="173.5,294.8 175.9,298.5 155.3,311.7 153,308.1 		"/>
		<rect x="177.6" y="296.7" class="st0" width="4.3" height="13.2"/>
		<path class="st1" d="M152.9,306.8h53.5c1.7,0,3.1,1.4,3.1,3v0c0,1.7-1.4,3.1-3.1,3.1h-53.5c-1.7,0-3-1.4-3-3.1v0
			C149.9,308.2,151.3,306.8,152.9,306.8z"/>
		<rect x="172.9" y="289.8" class="st0" width="13.6" height="10.1"/>
		<rect x="167.5" y="279.1" class="st1" width="24.3" height="12.9"/>
	</g>
	<g>
		<polygon class="st0" points="194.4,481 215,494.2 212.7,497.8 192.1,484.6 		"/>
		<polygon class="st0" points="182.2,481 184.5,484.6 163.9,497.8 161.6,494.2 		"/>
		<rect x="186.1" y="482.8" class="st0" width="4.3" height="13.2"/>
		<path class="st1" d="M161.5,492.9h53.5c1.7,0,3,1.4,3,3.1v0c0,1.7-1.3,3-3,3h-53.5c-1.7,0-3-1.3-3-3v0
			C158.5,494.3,159.9,492.9,161.5,492.9z"/>
		<rect x="181.5" y="475.9" class="st0" width="13.6" height="10.1"/>
		<rect x="176.1" y="465.2" class="st1" width="24.3" height="13"/>
	</g>
	<path class="st2" d="M152.1,439.5c-26.2,0-47.5-21.3-47.5-47.5v-18.5v-7.6V202c0-7.1-5.8-12.8-12.8-12.8c-7.1,0-12.8,5.7-12.8,12.8
		v163.1v7.6v19.3c0,40.4,32.8,73.2,73.2,73.2h173.1v-25.7H152.1z"/>
	<g>
		<path class="st1" d="M101.5,322.6c0,5.4-4.4,9.8-9.7,9.8c-5.4,0-9.8-4.4-9.8-9.8c0-5.4,4.4-9.8,9.8-9.8
			C97.2,312.8,101.5,317.2,101.5,322.6z"/>
		<rect x="89.6" y="300.9" class="st0" width="4.3" height="21.7"/>
		<polygon class="st0" points="75.8,338.5 73.1,335.1 90.1,321.6 92.8,325 		"/>
		<polygon class="st0" points="108.7,337.3 91.3,324.3 93.9,320.9 111.2,333.9 		"/>
		<path class="st0" d="M98.6,322.6c0,3.8-3.1,6.9-6.8,6.9c-3.8,0-6.9-3.1-6.9-6.9c0-3.8,3.1-6.9,6.9-6.9
			C95.6,315.7,98.6,318.8,98.6,322.6z"/>
		<path class="st1" d="M91.8,348.2c-14.2,0-25.6-11.5-25.6-25.6c0-14.1,11.5-25.6,25.6-25.6c14.1,0,25.6,11.5,25.6,25.6
			C117.4,336.7,105.9,348.2,91.8,348.2z M91.8,302c-11.3,0-20.5,9.2-20.5,20.5c0,11.3,9.2,20.5,20.5,20.5c11.3,0,20.5-9.2,20.5-20.5
			C112.3,311.3,103.1,302,91.8,302z"/>
	</g>
	<g>
		<g>
			<polygon class="st0" points="386.4,200.5 399.7,221.1 403.2,218.8 390,198.2 			"/>
			<polygon class="st0" points="386.4,188.3 390,190.6 403.2,170.1 399.7,167.7 			"/>
			<rect x="388.2" y="192.3" class="st0" width="13.2" height="4.3"/>
			<path class="st1" d="M398.4,167.7v53.5c0,1.7,1.4,3,3,3h0c1.7,0,3.1-1.4,3.1-3v-53.5c0-1.7-1.4-3-3.1-3h0
				C399.8,164.7,398.4,166,398.4,167.7z"/>
			<rect x="381.4" y="187.6" class="st0" width="10.1" height="13.6"/>
			<rect x="370.7" y="182.3" class="st1" width="13" height="24.3"/>
		</g>
		<path class="st0" d="M374.3,306.5v-208h-25.7v208c0,46.7,38,84.6,84.7,84.6h66.8v-25.6h-66.8C400.8,365.6,374.3,339.1,374.3,306.5
			z"/>
	</g>
	<path class="st2" d="M482.4,98.5c0,0.2-0.1,0.5-0.1,0.7v293.5c0,25.8-21,46.8-46.8,46.8h-124c-32.2,0-58.3-26.1-58.3-58.3V98.5
		h-25.7v282.7c0,46.3,37.7,84,84,84h124c40,0,72.5-32.5,72.5-72.5V99.2c0-0.2-0.1-0.5-0.1-0.7H482.4z"/>
	<path class="st0" d="M104.3,191.5v-88.9c0-1.5-0.3-2.9-0.7-4.2H79.4c-0.5,1.3-0.7,2.7-0.7,4.2v88.9c0,49,39.9,88.9,88.9,88.9h190
		v-25.7h-190C132.7,254.8,104.3,226.4,104.3,191.5z"/>
	<g>
		<path class="st1" d="M377.1,450.6c0,5.4-4.4,9.8-9.8,9.8c-5.4,0-9.8-4.4-9.8-9.8c0-5.4,4.4-9.8,9.8-9.8
			C372.7,440.8,377.1,445.2,377.1,450.6z"/>
		<rect x="365.2" y="428.9" class="st0" width="4.3" height="21.7"/>
		<polygon class="st0" points="351.3,466.5 348.6,463.1 365.7,449.6 368.3,453 		"/>
		<polygon class="st0" points="384.2,465.3 366.9,452.3 369.4,448.9 386.8,461.9 		"/>
		<path class="st0" d="M374.2,450.6c0,3.8-3.1,6.8-6.9,6.8c-3.8,0-6.9-3.1-6.9-6.8c0-3.8,3.1-6.9,6.9-6.9
			C371.1,443.7,374.2,446.8,374.2,450.6z"/>
		<path class="st1" d="M367.3,476.2c-14.2,0-25.6-11.5-25.6-25.6c0-14.2,11.5-25.6,25.6-25.6c14.1,0,25.6,11.5,25.6,25.6
			C392.9,464.7,381.4,476.2,367.3,476.2z M367.3,430.1c-11.3,0-20.5,9.2-20.5,20.5c0,11.3,9.2,20.5,20.5,20.5
			c11.3,0,20.5-9.2,20.5-20.5C387.8,439.3,378.6,430.1,367.3,430.1z"/>
	</g>
</g>
</svg>
