<?xml version="1.0" encoding="utf-8"?>
<!-- Generator: Adobe Illustrator 24.0.2, SVG Export Plug-In . SVG Version: 6.00 Build 0)  -->
<svg version="1.1" id="Layer_1" xmlns="http://www.w3.org/2000/svg" xmlns:xlink="http://www.w3.org/1999/xlink" x="0px" y="0px"
	 viewBox="0 0 247.04 362.95" style="enable-background:new 0 0 247.04 362.95;" xml:space="preserve">
<style type="text/css">
	.st0{fill:#861316;}
</style>
<g>
	<path class="st0" d="M240.86,219.26c-9.2-58.7-44.36-109.79-78.37-159.21c-4.4-6.4-8.96-13.01-13.32-19.47c-1-1.48-2-2.97-3-4.47
		c-6.7-10.02-13.63-20.37-22.65-28.12c-2.36-2.03-5.76-3.51-8.93-3.51c-1.65,0-3.24,0.4-4.6,1.33c-4.34,2.97-4.99,9.92-5.62,16.65
		l-0.11,1.14c-2.36,24.74-12.85,50.17-33,80.02c-5.48,8.11-11.3,16.19-16.93,24.01c-10.74,14.92-21.85,30.35-30.63,46.13
		c-15.58,28-21.45,53.33-18.45,79.72c1.9,16.72,7.4,33.48,15.91,48.46c8.5,14.95,19.53,27.36,31.9,35.89
		c49.93,34.4,126.93,24.9,164.78-20.33C237.51,294.02,246.54,255.46,240.86,219.26z M206.08,307.64
		c-18.58,22.2-49.6,35.45-82.96,35.45c-22.78,0-44.57-6.36-61.34-17.91c-10.33-7.12-20.02-18.07-27.26-30.83
		c-7.5-13.19-12.34-27.92-14.01-42.6c-2.65-23.37,2.47-45.12,16.61-70.52c8.37-15.04,18.71-29.39,29.66-44.59l0.25-0.35
		c5.62-7.81,11.43-15.89,16.96-24.08c11.89-17.61,28.37-44.69,34.07-76.34l1.88-10.43l6.2,8.59c2.36,3.28,4.63,6.66,7.02,10.24
		l0.33,0.5c0.98,1.47,1.97,2.95,2.96,4.41c4.31,6.37,8.81,12.91,13.43,19.62c33.02,47.99,67.16,97.61,75.82,152.84
		C230.72,253.65,223.01,287.41,206.08,307.64z"/>
	<path class="st0" d="M84.48,278.63c-0.98-1.64-1.9-3.34-2.74-5.09l-0.01-0.02c-4.83-10.13-5.85-20.64-6.83-30.8
		c-0.38-3.94-0.78-8.02-1.39-11.98c-0.63-4.03-2.55-16.3-7.05-18.95c-0.36-0.21-0.84-0.42-1.53-0.42c-0.5,0-1.11,0.11-1.87,0.39
		c-0.25,0.1-6.44,2.59-9.02,11.55c-2.05,7.15-2.26,15.41-0.62,24.56c1.52,8.45,4.63,17.74,9.26,27.59
		c4.26,9.07,9.67,15.85,15.64,19.62c2.13,1.34,5.47,1.61,8.13,0.64c1.28-0.46,2.93-1.42,3.54-3.32c1.07-3.33-1.61-7.58-4.21-11.69
		C85.34,280.01,84.9,279.31,84.48,278.63z"/>
</g>
</svg>
