<?xml version="1.0" encoding="utf-8"?>
<!-- Generator: Adobe Illustrator 24.0.0, SVG Export Plug-In . SVG Version: 6.00 Build 0)  -->
<svg version="1.1" id="Layer_1" xmlns="http://www.w3.org/2000/svg" xmlns:xlink="http://www.w3.org/1999/xlink" x="0px" y="0px"
	 viewBox="0 0 576 576" style="enable-background:new 0 0 576 576;" xml:space="preserve">
<style type="text/css">
	.st0{fill:#282828;}
	.st1{fill:#D3D3D3;}
	.st2{fill:#939393;}
	.st3{fill:#575757;}
	.st4{fill:#C4C4C4;}
	.st5{fill:#FFFFFF;}
	.st6{fill:#AD8A33;}
	.st7{fill:#BD202F;}
</style>
<g>
	<g>
		<rect x="357.5" y="540.7" class="st0" width="16.2" height="9.3"/>
		<rect x="352.3" y="534.3" class="st1" width="26.7" height="9.3"/>
	</g>
	<g>
		<rect x="189.4" y="540.7" class="st0" width="16.3" height="9.3"/>
		<rect x="184.2" y="534.3" class="st1" width="26.7" height="9.3"/>
	</g>
</g>
<path class="st1" d="M408.9,506.4c0,14.7-10,28.6-22.4,30.4c-69.6,10-140.2,10-209.7,0c-12.4-1.8-22.4-15.6-22.4-30.4
	c0-145.3,0-290.5,0-435.8c0-14.8,10-28.6,22.4-30.4c69.6-10,140.2-10,209.7,0c12.4,1.8,22.4,15.6,22.4,30.4
	C408.9,215.9,408.9,361.2,408.9,506.4z"/>
<path class="st2" d="M170.6,51.8c73.6-10,148.3-10,221.9,0c5.6,0.8,10.6,4,14.6,8.3c-3.4-10.3-11.3-18.5-20.7-19.9
	c-69.6-10-140.2-10-209.7,0c-9.4,1.4-17.4,9.6-20.7,19.9C160.1,55.9,165,52.6,170.6,51.8z"/>
<path class="st2" d="M386.5,522c-69.6,10-140.2,10-209.7,0c-12.4-1.8-22.4-15.6-22.4-30.3c0,4.9,0,9.8,0,14.7
	c0,14.7,10,28.6,22.4,30.4c69.6,10,140.2,10,209.7,0c12.4-1.8,22.4-15.6,22.4-30.4c0-4.9,0-9.8,0-14.7
	C408.9,506.4,398.9,520.2,386.5,522z"/>
<g>
	<path class="st3" d="M379.6,114.1c0,7.4,5,13.5,11.2,13.5c6.2,0,11.2-6,11.2-13.5c0-7.4-5-13.5-11.2-13.5
		C384.6,100.6,379.6,106.7,379.6,114.1z"/>
	<rect x="389.8" y="100.7" class="st3" width="19.5" height="26.8"/>
	<path class="st1" d="M396.4,114.1c0,7.4,5,13.4,11.2,13.4c6.2,0,11.2-6,11.2-13.4c0-7.4-5-13.4-11.2-13.4
		C401.4,100.7,396.4,106.7,396.4,114.1z"/>
</g>
<rect x="274.7" y="473.7" class="st0" width="13.7" height="73.8"/>
<g>
	<path class="st0" d="M297.4,461.1c0,8.7-7.1,15.8-15.8,15.8c-8.8,0-15.9-7.1-15.9-15.8c0-8.8,7.1-15.9,15.9-15.9
		C290.3,445.2,297.4,452.3,297.4,461.1z"/>
	<path class="st4" d="M294.1,461.1c0,6.9-5.6,12.6-12.5,12.6c-7,0-12.6-5.7-12.6-12.6c0-7,5.6-12.6,12.6-12.6
		C288.5,448.5,294.1,454.1,294.1,461.1z"/>
	<rect x="279.6" y="447.6" class="st5" width="3.9" height="10.2"/>
	<path class="st0" d="M282.7,440.6c0,0.9-0.7,1.5-1.5,1.5c-0.9,0-1.5-0.7-1.5-1.5c0-0.8,0.7-1.5,1.5-1.5
		C282,439.1,282.7,439.8,282.7,440.6z"/>
	<path class="st0" d="M271.9,442.9c0.4,0.7,0.2,1.7-0.6,2.1c-0.7,0.4-1.7,0.1-2.1-0.6c-0.4-0.7-0.2-1.7,0.6-2.1
		C270.5,441.9,271.5,442.2,271.9,442.9z"/>
	<path class="st0" d="M263.7,450.3c0.8,0.4,1,1.4,0.6,2.1c-0.4,0.7-1.4,1-2.1,0.5c-0.7-0.4-1-1.3-0.6-2.1
		C262,450.1,263,449.8,263.7,450.3z"/>
	<path class="st0" d="M260.3,460.8c0.9,0,1.6,0.7,1.6,1.5c0,0.8-0.7,1.5-1.6,1.5c-0.8,0-1.5-0.7-1.5-1.5
		C258.7,461.5,259.4,460.8,260.3,460.8z"/>
	<path class="st0" d="M262.5,471.6c0.7-0.4,1.7-0.1,2.1,0.6c0.4,0.7,0.2,1.7-0.6,2.1c-0.8,0.4-1.7,0.1-2.1-0.6
		C261.6,473,261.8,472,262.5,471.6z"/>
	<path class="st0" d="M269.9,479.8c0.4-0.7,1.3-1,2.1-0.6c0.7,0.4,1,1.4,0.6,2.1c-0.4,0.8-1.4,1-2.1,0.6
		C269.7,481.5,269.5,480.6,269.9,479.8z"/>
	<path class="st0" d="M280.5,483.3c0-0.9,0.7-1.6,1.5-1.6c0.9,0,1.6,0.7,1.6,1.6c0,0.9-0.7,1.6-1.6,1.6
		C281.1,484.8,280.5,484.1,280.5,483.3z"/>
	<path class="st0" d="M291.3,481c-0.4-0.7-0.2-1.7,0.6-2.1c0.7-0.4,1.7-0.2,2.1,0.6c0.4,0.8,0.2,1.7-0.6,2.1
		C292.6,482,291.7,481.7,291.3,481z"/>
	<path class="st0" d="M299.5,473.6c-0.7-0.5-1-1.4-0.5-2.1c0.4-0.8,1.4-1,2.1-0.6c0.7,0.5,1,1.4,0.5,2.1
		C301.2,473.8,300.2,474,299.5,473.6z"/>
	<path class="st0" d="M302.9,463.1c-0.9,0-1.6-0.7-1.6-1.6c0-0.8,0.7-1.5,1.6-1.5c0.8,0,1.5,0.7,1.5,1.5
		C304.4,462.4,303.7,463.1,302.9,463.1z"/>
	<path class="st0" d="M300.6,452.3c-0.7,0.4-1.6,0.2-2.1-0.6c-0.4-0.8-0.2-1.7,0.6-2.1c0.8-0.4,1.7-0.2,2.1,0.5
		C301.6,450.9,301.3,451.8,300.6,452.3z"/>
	<path class="st0" d="M293.2,444.1c-0.4,0.8-1.4,1-2.1,0.5c-0.7-0.4-1-1.4-0.6-2.1c0.4-0.7,1.4-1,2.1-0.6
		C293.4,442.4,293.7,443.3,293.2,444.1z"/>
</g>
<path class="st6" d="M305.2,493.2c0,6.1,5,11.1,11.1,11.1c6.1,0,11.1-4.9,11.1-11.1c0-6.1-5-11-11.1-11
	C310.2,482.2,305.2,487.1,305.2,493.2z"/>
<g>
	<path class="st5" d="M281.6,285.5c-18.1,0-36.2-0.5-54.3-1.5l-1.6-56.3l1.8,0.1c18,1,36.1,1.5,54.1,1.5c18,0,36.1-0.5,54.1-1.5
		l1.8-0.1v54.7C317.8,285,299.7,285.5,281.6,285.5z"/>
	<path class="st5" d="M335.8,282.3c-36.1,2-72.3,2-108.4,0c0-17.6,0-35.2,0-52.9c36.1,1.9,72.3,1.9,108.4,0
		C335.8,247.1,335.8,264.7,335.8,282.3z"/>
	<g>
		<path class="st5" d="M281.6,348.5c-15.6,0-31.2-0.4-46.7-1.1l-1.6-56.3l1.8,0.1c15.5,0.7,31.1,1.1,46.6,1.1
			c15.5,0,31-0.4,46.6-1.1l1.8-0.1v54.6C312.8,348.1,297.2,348.5,281.6,348.5z"/>
		<path class="st5" d="M328.3,345.7c-31.1,1.5-62.2,1.5-93.4,0c0-17.6,0-35.2,0-52.9c31.1,1.4,62.2,1.4,93.4,0
			C328.3,310.4,328.3,328.1,328.3,345.7z"/>
		<g>
			<path class="st5" d="M224,346.8c-17.6-1-35.3-2.5-52.9-4.4l-1.5-56.4l1.9,0.2c17.5,1.9,35.1,3.4,52.7,4.4l1.6,56.3L224,346.8z"/>
			<path class="st5" d="M224.1,345.1c-17.6-1-35.2-2.5-52.8-4.4c0-17.6,0-35.2,0-52.9c17.6,1.9,35.2,3.4,52.8,4.4
				C224.1,309.9,224.1,327.5,224.1,345.1z"/>
			<path class="st5" d="M337.4,292.2c19.2-2.7,36.7-4.1,54.3-6.1l1.9-0.2v54.8c-19.1,3.6-36.7,5.1-54.4,6.1l-1.8,0.1V292.2z"/>
			<path class="st5" d="M391.9,340.7c-17.6,1.9-35.2,3.4-52.8,4.4c0-17.6,0-35.2,0-52.9c17.7-1,35.3-2.5,52.8-4.4
				C391.9,305.5,391.9,323,391.9,340.7z"/>
		</g>
	</g>
</g>
<g>
	<path class="st5" d="M328.6,121.4c-31.3,0.1-62.7,0.1-94,0c0-8.5,0-17,0-25.5c31.3-2.1,62.7-2.1,94,0
		C328.6,104.4,328.6,112.9,328.6,121.4z"/>
	<path class="st7" d="M328.6,145.3c-31.3,2.1-62.7,2.1-94,0c0-8.5,0-17,0-25.6c31.3-0.1,62.7-0.1,94,0
		C328.6,128.2,328.6,136.7,328.6,145.3z"/>
</g>
</svg>
