<?xml version="1.0" encoding="utf-8"?>
<!-- Generator: Adobe Illustrator 24.2.1, SVG Export Plug-In . SVG Version: 6.00 Build 0)  -->
<svg version="1.1" id="Layer_1" xmlns="http://www.w3.org/2000/svg" xmlns:xlink="http://www.w3.org/1999/xlink" x="0px" y="0px"
	 viewBox="0 0 512 512" style="enable-background:new 0 0 512 512;" xml:space="preserve">
<style type="text/css">
	.st0{fill:#861316;}
</style>
<path class="st0" d="M72.4,434.9l-18.6,18.6c-6.9,6.9-6.9,18.1,0,25c6.9,6.9,18.1,6.9,25,0l18.6-18.6c6.9-6.9,6.9-18.1,0-25
	C90.4,428,79.3,428,72.4,434.9L72.4,434.9z M88.8,451.3l-18.6,18.6c-2.2,2.2-5.8,2.3-8,0.1c-2.2-2.2-2.3-5.8-0.1-8
	c0,0,0.1-0.1,0.1-0.1l18.6-18.6c2.2-2.2,5.8-2.2,8,0C91,445.5,91,449.1,88.8,451.3L88.8,451.3L88.8,451.3z"/>
<path class="st0" d="M463.2,28.7c-26.9-26.9-70.6-26.9-97.6,0c0,0,0,0,0,0l-39.8,39.8l-2.4-2.4c-15.3-15.3-40.2-15.3-55.5,0
	s-15.3,40.2,0,55.5l2.4,2.4l-5.5,5.5l-7.1-7.1c-2.3-2.3-6.1-2.3-8.5,0l-22.4,22.4c-2.3,2.3-2.3,6.1,0,8.5l7.1,7.1L115.7,278.7
	c-2.3,2.3-2.3,6.1,0,8.5c0,0,0,0,0,0l18.4,18.4c2.3,2.3,6.1,2.3,8.5,0c0,0,0,0,0,0l90.3-90.3l6.2,26.3L39.2,441.3
	c-14,14.4-13.6,37.5,0.8,51.5c14.1,13.7,36.5,13.7,50.7,0L403,180.5c2.3,1.3,5.2,0.8,7-1l30-30c2.3-2.3,2.3-6.1,0-8.5l-44.6-44.6
	c-2.3-2.3-6.1-2.3-8.5,0l-16.7,16.7l-2-2l25.8-25.8l1.5-1.5c2.7-2.7,7-2.7,9.7,0l46,46c2.3,2.3,6.1,2.3,8.5,0l3.4-3.4
	C490.1,99.4,490.1,55.7,463.2,28.7C463.2,28.7,463.2,28.7,463.2,28.7L463.2,28.7z M253.5,135.1l32.7,32.7l-13.9,13.9L239.5,149
	L253.5,135.1z M298.9,163.5l-7.1-7.1l5.5-5.5l16.3,16.3l-36.3,36.3l-8.2-8.2c2.4,1.5,5.5,1.2,7.5-0.8l22.4-22.4
	C301.2,169.7,301.2,165.9,298.9,163.5L298.9,163.5z M273.3,138l5.5-5.5l9.9,9.9l-5.5,5.5L273.3,138z M138.3,292.8l-9.9-9.9l9.6-9.6
	l13,6.8L138.3,292.8z M159.9,271.2l-13-6.8l11.3-11.3l13,6.8L159.9,271.2z M180.1,251l-13-6.8l11.3-11.3l13,6.8L180.1,251z
	 M200.2,230.9l-13-6.8l11.3-11.3l13,6.8L200.2,230.9z M220.4,210.7l-13-6.8l11.3-11.3l13,6.8L220.4,210.7z M227.6,183.7l14.8-14.8
	l9.9,9.9l-11.7,11.7L227.6,183.7z M391.2,109.1l36.1,36.1l-21.6,21.6l-36.1-36.1L391.2,109.1z M394.3,172.3L82.2,484.3
	c-9.7,9.3-25.2,9-34.5-0.7c-9.1-9.4-9.1-24.4,0-33.8l202.1-202.1c1.5-1.5,2.1-3.6,1.6-5.6l-8.7-36.8l9.6-9.6l20.5,20.5
	c2.3,2.3,6.1,2.3,8.5,0l44.7-44.7c2.3-2.3,2.3-6.1,0-8.5l-49.8-49.8c-10.6-10.6-10.6-27.9,0-38.5s27.9-10.6,38.5,0l46.9,46.9
	l-4.9,4.9c-2.3,2.3-2.3,6.1,0,8.5L394.3,172.3z M455.5,117l-41.7-41.7c-1.7-1.7-3.6-3-5.8-3.9l5.8-5.8c2.7-2.7,7-2.7,9.7,0
	c0,0,0,0,0,0l40.3,40.3C461.6,109.9,458.8,113.6,455.5,117z M432,57.1c-7.4-7.4-19.3-7.4-26.7,0c0,0,0,0,0,0l-45.5,45.5l-25.5-25.5
	l39.8-39.8c22.3-22.2,58.4-22.2,80.7,0.1C469.6,52.2,475,73.9,469,94L432,57.1z"/>
</svg>
