<?xml version="1.0" encoding="UTF-8"?>
<svg enable-background="new 0 0 512 512" version="1.1" viewBox="0 0 512 512" xml:space="preserve" xmlns="http://www.w3.org/2000/svg">
<style type="text/css">
	.st0{fill:#FFFFFF;}
</style>
<path class="st0" d="m257.3 376.8c0.8-19.9-27-29.8-39-14.3-25.9 31.3-74.5 88.1-77.3 95.1-7.4 21.3 27.3 34.9 49.3 43.2 23.9 9 40.9 12.6 51 10.9 7.3-1.5 12-5.3 14.3-11.4 1.9-5.3 1.7-118.8 1.7-123.5z"/>
<path class="st0" d="m245.8 13.7c-1.7-6.6-6.3-10.9-13.8-12.8-22.1-5.8-105.9 17.9-121.6 34.6-5 5.1-6.8 11-5.3 17.7l106.3 170.7c21.7 34.7 49 24.3 47.2-14.5-1.3-25.6-11.5-187.3-12.8-195.7z"/>
<path class="st0" d="m200.8 325.1c20.1-6.2 18.6-35.6 1.5-42.6-45.6-18.8-107.9-45.1-112.7-45.1-18.7-1.1-22.3 25.6-24.2 44.7-1.7 17.3-1.8 33.1-0.3 47.6 1.4 15.2 4.7 30.8 19.9 31.7 6.6-0.1 114.8-36 115.8-36.3z"/>
<path class="st0" d="m437.6 257.1c8.6-6 7.3-14.9 7.4-17.9-2.3-21.8-39-77-57.4-86-7-3.2-13.1-3.1-18.3 0.6-6.9 4.7-69.1 94.8-72.8 98.5-12.1 16.4 5.2 39.9 23.3 35.2l-0.3 0.6c7.3-2.3 112.5-27.2 118.1-31z"/>
<path class="st0" d="m326.8 332.5c-18.8-6.7-36.5 17.3-25.6 33.7 3.1 5.3 59.9 100.4 64.9 103.9 4.8 4.1 10.8 4.7 17.7 2 19.3-7.7 61.1-61.4 63.8-82.3 1.1-7.4-0.9-13.2-6.1-17.4-4.1-3.6-114.7-39.9-114.7-39.9z"/>
</svg>
